<svg version="1.1" xmlns="http://www.w3.org/2000/svg" viewBox="0 0 1317 668.5646258503401" width="1317" height="668.5646258503401">
  <!-- svg-source:excalidraw -->
  
  <defs>
    <style>
      @font-face {
        font-family: "Virgil";
        src: url("https://excalidraw.com/Virgil.woff2");
      }
      @font-face {
        font-family: "Cascadia";
        src: url("https://excalidraw.com/Cascadia.woff2");
      }
    </style>
  </defs>
  <rect x="0" y="0" width="1317" height="668.5646258503401" fill="#ffffff"></rect><g stroke-linecap="round" transform="translate(10 10) rotate(0 648.5 324.28231292517006)"><path d="M0 0 C0 0, 0 0, 0 0 M0 0 C0 0, 0 0, 0 0 M0.21 6 C0.79 3.99, 2.33 1.88, 4.76 -0.06 M-0.33 6.12 C1.45 4.38, 3.13 2.89, 5.38 0.58 M0.89 12.9 C3.41 6.7, 8.97 2.53, 11.46 -0.56 M-0.52 12.53 C3.39 9.14, 5.99 4.51, 10.3 -0.06 M-1.96 20.38 C2.05 15.55, 6.35 8.56, 15.6 0.49 M-0.78 18.45 C3.52 13.73, 6.21 9.94, 15.91 1.31 M-1.33 23.63 C5.91 15.9, 13.39 9.01, 22.88 -0.03 M0.14 25.02 C6.69 14.93, 15.21 8.18, 20.36 -0.45 M-1.27 28.57 C8.17 19.78, 19.07 10.45, 27.26 0.92 M-0.21 30.23 C9.57 18.96, 20.05 8.62, 27.11 0.2 M-1.87 37.13 C8.82 27.96, 19.05 16.2, 31.48 0.83 M0.45 35.96 C9.29 26.55, 19.2 15.55, 31.36 0.15 M-0.34 44.12 C6.02 34.78, 14.92 24.14, 36.71 1.87 M-0.8 42.73 C8.64 32.7, 18.12 21.02, 37.83 1.06 M1.71 47.76 C13.37 33.45, 25.33 17.53, 44.51 -0.83 M-0.97 49.28 C10.9 35.45, 24.08 22.28, 42.22 -0.39 M-0.48 54.71 C14.94 39.33, 27.05 21.94, 46.23 -0.85 M-0.34 53.64 C17.1 36.44, 34.36 16.13, 47.09 0.91 M-1.35 62.45 C14.07 43.67, 28.68 28.76, 52.98 -0.18 M-0.59 60.54 C14.84 42.7, 29.63 26.34, 53.24 0.79 M0.27 68.28 C15.53 51.58, 30.24 34.89, 57.05 1.1 M-0.03 66.4 C23.32 41.45, 46.19 14.86, 57.67 -0.79 M1.83 71.92 C14.89 54.69, 27.32 40.45, 61.87 1.14 M-0.42 73.03 C13.23 56.51, 27.79 40.02, 62.95 0.54 M-0.18 80.06 C24.5 50.89, 49.86 24.91, 67.4 -1.39 M-0.8 80.16 C12.87 63.92, 27.88 48.29, 69.13 0.94 M1.07 85.42 C25.77 59.36, 44.87 31.49, 76.12 1.02 M0.28 85.54 C23.98 57.19, 47.47 32.19, 75.16 0.69 M-1.89 91.07 C23.77 63.91, 51.34 34.91, 78.44 -0.94 M-0.33 91.31 C32.15 55.55, 62.63 18.33, 78.79 -0.45 M0.53 97.48 C34.6 59.62, 66.57 20.84, 86.65 -1.12 M-0.65 98.07 C21.92 72.84, 45.61 47.03, 85.96 -0.93 M1.66 103.1 C22.37 75.86, 46.7 51.48, 88.34 0.41 M0.65 103.49 C27.41 72.91, 53.8 43.24, 90.74 -0.03 M-0.7 110.92 C35.1 68.35, 68.33 30.16, 96.35 1.67 M-0.61 109.88 C24.75 82.89, 48.35 55.01, 94.69 0.47 M0.99 117.49 C36.09 74.33, 76.03 28.46, 102.2 1.11 M0.68 115.31 C22.78 91.24, 43.69 66.1, 100.82 -0.38 M1.46 123.32 C25.89 95.37, 49.3 66.33, 106.06 -2.13 M0.78 120.94 C20.75 96.38, 43.37 72.05, 106.95 -0.33 M-0.09 129.84 C21.29 100.86, 47.83 70.96, 110.13 -1.84 M-0.11 128.12 C40.73 80.77, 80.68 32.88, 111.66 -0.59 M0.73 134.05 C26.61 103.9, 53.25 78.02, 115.96 0.26 M-0.69 133.97 C38.33 91.14, 73.59 47.95, 116.97 1.21 M0.19 141.03 C27.39 108.6, 52.32 77.88, 121.16 1.11 M-0.35 140 C44.83 89.27, 89.04 38.07, 121.62 0.71 M1.78 147.03 C41.72 99.47, 81.39 55.24, 126.14 0.87 M0.56 146.17 C37.89 103.73, 75.94 60.61, 127.19 1.33 M-0.37 151.81 C28.91 120.84, 58.38 86.3, 133.26 -1.81 M-0.31 153.18 C42.58 103.44, 86.57 52.01, 131.94 0.36 M1.4 157.6 C40.03 111.29, 82.75 63.85, 138.57 1.39 M0.16 158.95 C43.06 107.68, 85.96 56.29, 137.39 -0.39 M0.44 165.3 C42.32 114.75, 82.01 68.92, 143.58 1.22 M-0.45 164.47 C51.68 103.89, 103.22 45.81, 143.3 -0.14 M-1.59 170.75 C41.66 119.06, 86.23 70.17, 146.65 0.76 M-0.29 170.16 C47.3 117.72, 91.88 63.62, 148.17 0.47 M-0.6 175.29 C48.29 121.61, 96.42 64.92, 154.01 -1.28 M0.86 176.21 C39.4 130.46, 80.22 85.32, 153.67 -0.12 M0.3 181.47 C39.67 136.54, 80.02 91.6, 158.05 0.84 M-0.69 182.81 C38.72 139.96, 75.2 97.12, 159.42 0.03 M-0.45 189.8 C39.1 145.86, 76.74 101.97, 165.28 0.71 M0.45 188.72 C38.5 143.02, 79.51 96.31, 164.31 -0.17 M0.63 194.82 C39.36 149.66, 77.38 105.65, 168.18 1.28 M-0.53 194.48 C37.19 152.43, 74.18 109.74, 169.63 -0.22 M0.68 202.28 C63.95 128.58, 126.06 56.93, 175.66 -0.98 M-0.73 201.68 C38.69 157.37, 76.82 111.96, 175.36 0.35 M0.73 207.89 C61.29 139.18, 118.89 71.32, 179.22 1.43 M-0.33 207.28 C38.78 162.57, 79.07 116.59, 180.05 0.22 M0.78 214.8 C57.86 147.82, 116.82 81.52, 185.9 -0.86 M0.35 213.05 C52.39 152.97, 106.57 89.5, 185.26 -0.68 M0.34 219.26 C73.47 135.1, 148.49 50.95, 191.51 -1.13 M0.12 219.69 C69.81 139.51, 138.75 58.8, 190.46 0.27 M0.1 226.69 C47.81 170.5, 97.8 114.47, 197.37 -1.15 M-0.28 224.8 C50.56 166.83, 100.08 110.33, 196.11 0.42 M-1.08 233.18 C50.42 178.06, 96.45 123.14, 202.45 -0.14 M0.54 232.18 C42.32 184.37, 83.73 135.79, 201.58 -0.27 M1.71 237.05 C47.11 180.76, 93.3 125.52, 207.66 -0.53 M0.54 237.94 C66.4 162.83, 130.74 88.98, 206.78 0.05 M-0.92 244.61 C57.09 179.05, 114.18 111.2, 211.16 -0.29 M0.13 243.4 C55.78 180.8, 111.55 117.5, 211.44 -0.22 M0.72 249.66 C61.9 176.56, 123.85 103.73, 218.13 -1.62 M-0.44 249.95 C78.97 160.43, 157.63 68.85, 218.14 0.26 M-1.08 255.61 C64.2 178.39, 129.87 104.19, 222.24 -0.58 M0.63 256.53 C63.34 180.5, 127.53 107.27, 223.2 -0.55 M0.07 262.65 C73.54 177.84, 146.94 93.66, 229.23 -1.06 M-0.63 262.44 C69.64 183.45, 139.24 103.88, 228.18 -0.83 M1.27 268.3 C55.59 207.71, 107.38 146.27, 233.18 0.86 M0.79 268.17 C48.19 215.31, 95.23 160.93, 233.3 0.43 M-0.81 274.9 C50.24 216.32, 101.46 158.83, 238.8 1.33 M0.52 273.76 C81.06 184.34, 159.75 92.76, 238.79 0.64 M-1.38 281.85 C57.05 214.34, 115.98 147.28, 244.25 0.35 M-0.62 280.81 C86.04 180.26, 171.96 81.54, 244.45 -0.14 M0.58 286.95 C78.31 195.63, 159.06 103.08, 248.66 1.43 M0 286.11 C59.35 217.48, 120.2 148.17, 248.45 0.06 M0.04 293.72 C51.97 233.01, 104.46 173.69, 254.5 0.44 M-0.55 292.32 C64.19 218.5, 128.18 145.17, 254.34 0.02 M0.52 297.86 C99.47 182.14, 200.26 66.63, 259.17 -0.72 M0.04 297.84 C83.04 201.55, 166.31 104.29, 259.22 -0.11 M0.68 305.23 C60.65 231.6, 122.62 160.58, 265.39 0.75 M-0.03 304.91 C66 230.19, 132.12 153.88, 265.16 0 M-0.37 311.71 C57.66 243.42, 115.85 174.16, 270.57 1.2 M-0.75 311.09 C71.87 227.59, 145.91 143.57, 269.91 0.72 M0.77 317.16 C102.76 198.87, 206.39 79.37, 274.87 -0.37 M0.51 316.83 C70.52 237.54, 139.01 158.05, 275.64 0.13 M-0.74 322.21 C57.51 259.98, 113.32 193.37, 281.48 1.16 M-0.49 323.38 C76.89 234.84, 153.56 146.19, 280.97 0.67 M0.98 329.38 C81.27 234.16, 161.42 141.3, 287.37 -0.42 M0.06 328.4 C60.14 261.16, 119.02 193.28, 286.4 0.12 M0.72 335.86 C59.79 265.91, 119.08 198.12, 292.25 0.42 M0.25 335.16 C91.27 228.88, 183.49 123.11, 291.69 0.42 M0.73 340.89 C105.26 218.85, 210.12 98.63, 297.77 -0.49 M-0.05 341.85 C64.47 266.48, 128.23 192.9, 297.11 -0.24 M0.88 346.77 C79.95 255.99, 158.28 164.2, 301.73 -0.63 M-0.19 347.13 C88.18 247.94, 175.02 147.93, 301.82 0.29 M0.01 353.54 C63.02 283.86, 124.48 212.31, 307.42 0.14 M-0.21 353.88 C70.57 273.99, 141.14 193.72, 308.06 -0.66 M0.76 358.88 C94.69 252.38, 188.74 144.55, 312.12 0.32 M0.07 359.39 C84.56 261.51, 170.16 163.11, 312.85 -0.13 M0.12 365.87 C118.97 229.79, 236.41 94.79, 318.25 -0.74 M0.05 365.73 C107.8 241.52, 215.96 117.93, 317.91 -0.09 M-0.29 371.72 C68.28 295.9, 136.02 217.18, 323.88 -0.55 M-0.53 371.93 C81.63 277.16, 164.08 182.6, 322.96 0.28 M-0.26 377.1 C77.03 289.97, 152.75 203.01, 328.54 -0.22 M0.3 377.61 C96.33 267.04, 193.52 154.9, 328.52 -0.5 M0.59 384.16 C120.23 244.28, 240.95 104.6, 333.82 0.25 M-0.11 383.81 C72.68 301.15, 144.72 217.99, 333.72 0.26 M0.5 389.91 C95.63 280.85, 189.42 172.67, 339.18 0.06 M0.1 389.84 C130.27 237.58, 261.94 86.43, 339.16 -0.44 M0.21 396.38 C104.41 274.17, 208.27 153.65, 344.22 0.53 M-0.28 396.27 C81.63 302.51, 162.36 210.01, 344.49 0.06 M0.56 402.25 C83.39 306.89, 166.53 210.89, 348.77 0.75 M-0.53 402.54 C126.21 258.66, 251.86 113.41, 349.09 0.2 M0.88 407.63 C92.71 300.01, 185.31 194.5, 355.19 -0.02 M0.13 408.6 C138.43 248.11, 276.63 88.76, 355.35 0.1 M-0.38 414.86 C130.73 265.21, 259.59 117.05, 360.26 0.84 M0.27 414.52 C109.52 288.71, 217.98 164.36, 360.4 0.07 M0.23 421.71 C86.42 322.26, 172.31 224.22, 365.67 -0.68 M-0.65 420.85 C94.62 310.93, 189.48 201.5, 365.91 -0.21 M0.61 426.94 C120.01 290.2, 237.65 153.47, 371.43 -0.22 M0.32 426.68 C131.27 278.43, 261.47 128.05, 370.54 0.5 M-0.54 433.55 C111.6 305.58, 223.07 177.41, 375.79 -0.56 M-0.35 432.8 C83.12 338.18, 165.92 243.3, 376.46 -0.47 M0.31 438.76 C121.23 298.77, 241.66 158.91, 381.49 0.1 M0.4 438.56 C152.43 263.28, 303.1 89.04, 381.73 0.43 M0.17 445.79 C120.32 308.91, 239.84 171.4, 387.65 -0.92 M-0.14 444.87 C130.52 291.57, 263.53 139.85, 386.82 -0.48 M0.01 452.33 C152.39 276.36, 305.05 100.31, 391.24 0.93 M-0.65 451.83 C146.85 282.35, 293.22 114.26, 391.86 0.01 M-0.17 456.9 C158.05 274.51, 315.93 93.55, 398.16 0.37 M-0.04 457.13 C121.29 318.34, 240.77 180.58, 397.5 0.15 M-0.62 462.85 C116.81 330.45, 232.61 197.06, 402.28 0.41 M-0.55 463.69 C146.25 295.46, 292.89 126.03, 402.96 0.18 M-0.14 469.18 C108.55 345.14, 216.02 220.64, 407.79 0.06 M0.06 468.86 C108.65 344.87, 217.47 220.08, 408.52 0.01 M-0.3 475.16 C164.63 289.83, 327.32 101.03, 412.98 -0.31 M-0.25 475.82 C123.9 330.58, 249.44 186.12, 413.55 -0.14 M-0.55 482.29 C128.07 335.44, 255.14 189.07, 418.22 -0.09 M-0.71 482.06 C86.39 382.66, 172.81 282.13, 419.01 -0.51 M-0.72 487.17 C91.97 378.88, 185.81 271.67, 424.12 0.54 M-0.14 487.73 C114.61 354.72, 229.73 222.72, 423.87 0.4 M0.52 494.24 C113.35 361.91, 230.82 228.2, 429.9 -0.5 M-0.33 494.07 C167.75 299.61, 336.46 106.42, 429.21 -0.45 M0.05 499.42 C128.83 348.71, 259.43 197.56, 434.83 -0.25 M0.49 499.5 C172.16 302.79, 344.64 104, 434.65 0.3 M-0.19 506.7 C173.79 305.64, 348.99 102.94, 439.7 0.21 M0.15 506.5 C126.86 362.47, 252.84 217.69, 440.05 -0.24 M-0.37 511.78 C134.76 358.95, 268.49 205.83, 445.08 -0.5 M-0.02 512.18 C159.03 328.61, 319.15 145.01, 445.13 -0.31 M0.33 518.03 C138.38 358.49, 277.18 200.58, 451.24 -0.36 M0.47 517.79 C113.44 385.61, 227.37 253.46, 451.19 -0.52 M-0.37 524.51 C136.78 364.85, 275.8 205.98, 456.38 0.21 M-0.21 524.36 C126.29 377.23, 254.94 229.75, 455.87 -0.13 M0.25 529.58 C129.8 381.31, 258.35 233.51, 461.34 0.41 M0.04 529.96 C119.59 393.54, 239.28 256.27, 461.36 -0.13 M-0.73 537.11 C156.62 359.88, 309.44 182.9, 466.24 -0.31 M0.07 536.26 C114.42 407.52, 227.39 277.65, 466.72 -0.26 M-0.53 542.48 C182.99 334.18, 364.52 125.03, 471.36 0.5 M-0.67 542.6 C169.97 345.84, 340.27 149.05, 471.39 0.23 M0.4 549.37 C104.66 429.75, 209.01 307.99, 476.99 0.37 M0.36 548.77 C172.7 349.44, 345.65 151.12, 477.25 0.19 M-0.13 555.39 C177.99 352.16, 355.23 149.2, 482.6 0.63 M-0.31 555.03 C110.47 430.24, 218.44 305.33, 482.34 0.19 M-0.33 561.27 C168.55 370.42, 335.5 178, 486.9 0.49 M0.11 560.55 C150.64 385.29, 303.2 209.97, 487.91 -0.27 M0.53 566.66 C172.03 371.83, 342.34 175.41, 493.21 0 M-0.18 567.2 C101.68 454.14, 201.36 339.03, 492.83 0.65 M-0.14 572.96 C147.3 406.1, 292.14 237.78, 499.05 -0.29 M-0.01 573.2 C105.27 449.65, 212.84 326.17, 498.09 -0.38 M-0.42 578.5 C158.13 396.45, 316.82 212.99, 503.14 0.48 M0.37 578.73 C127.19 430.17, 254.85 283.06, 503.64 0.33 M0.5 585.75 C198.97 355.32, 398.35 126.06, 509.31 -0.09 M0.19 585.49 C169.56 388.52, 341.7 191.02, 508.86 -0.44 M0.73 590.53 C129.59 445.25, 256.51 297.71, 514.36 0.14 M0.48 590.82 C118.8 451.73, 239.49 313.39, 514.25 0.17 M-0.45 597.81 C202.97 367.35, 405.23 135.09, 519.94 -0.45 M0 597.42 C206.99 361.88, 413.3 125.28, 519.43 -0.4 M-0.96 604.53 C205.98 362.25, 413.17 123.96, 525.22 0.47 M-0.04 604.22 C207.86 363.95, 415.9 124.37, 524.85 0.46 M0.01 609.98 C188.45 389, 377.89 170.66, 530.77 -0.67 M0.08 609.21 C138.74 450.86, 275.21 293.66, 529.86 -0.19 M0.3 615.83 C207.45 379.76, 411.1 144.79, 534.44 0.77 M-0.1 615.81 C154.71 436.82, 311.33 256.46, 535.14 0.54 M0.46 620.92 C109.11 493.77, 219 365.97, 540.04 -0.24 M0.62 621.72 C126.71 476.64, 253.13 331.15, 540.78 -0.14 M0.34 628.25 C169.71 433.97, 338.6 239.81, 545.17 0.55 M-0.08 628.33 C149.83 456.03, 298.85 285, 545.52 -0.1 M0.01 635.03 C192.14 410.21, 385.01 187.5, 551.56 0.36 M-0.58 634.33 C214.3 389.57, 428.83 142.92, 551.28 -0.61 M-0.37 640.65 C144.44 475.28, 288.26 311.14, 556.09 0.34 M0.38 639.75 C216.03 393.5, 431.24 146.38, 556.71 0.24 M0.15 645.89 C141.47 483.93, 284.84 319.47, 562.73 0.46 M-0.21 646.35 C128.46 497.47, 258.63 347.75, 561.77 0.04 M2.18 649.46 C216.66 400.56, 432.33 154.06, 567.12 -0.73 M2.56 650.19 C161.08 469.07, 319.94 286.83, 566.91 0.25 M7.17 650.83 C174.62 455.5, 342.57 261.82, 573.34 -0.01 M6.97 650.45 C134.57 507.97, 259.37 363.7, 572.78 -0.54 M11.95 650.36 C130.67 513.31, 248.27 376.04, 576.93 0.69 M12.55 650.41 C183.46 453.1, 353.95 256.48, 577.85 0.02 M17.28 650.68 C175.75 466.7, 337.22 282.77, 582.53 1.08 M17.64 650.37 C169.69 475.12, 320.72 301.83, 583.07 0.44 M22.94 650.78 C225.31 419.06, 427.15 188.52, 588.6 0.16 M23.03 650.67 C246.9 394.97, 470.33 139.38, 587.95 -0.17 M28.52 650.52 C228.01 419.86, 427.75 191.38, 593.76 0.97 M28.2 650.09 C154 506.3, 280.33 360.66, 593.48 0.29 M33.31 651.17 C150.62 517.06, 265.59 384.1, 599.19 0.66 M33.35 650.48 C258.1 392.28, 483.93 132.5, 599.16 -0.24 M39.39 649.49 C187.45 481.63, 335.63 311.31, 603.73 0.61 M39.47 650.41 C261.9 393.99, 485.19 136.38, 604.21 0.59 M43.47 651.08 C164.42 511.7, 284.95 372.88, 610.15 0.57 M44.02 650.58 C244.63 417.5, 447.04 184.66, 609.3 0.07 M49.6 650.11 C218.83 457.56, 387.43 262.37, 613.79 0.79 M49.77 649.92 C182.35 497.79, 315.78 344.92, 614.58 0.55 M54.61 650.65 C182.27 503.12, 308.99 356.26, 620.1 -0.7 M54.86 650.12 C174.5 512.17, 294.79 374.35, 620.53 0.02 M60.83 649.55 C277.16 403.14, 491.08 156.56, 625.26 0.5 M60.11 650.2 C200.12 490.11, 338.02 330.72, 625.25 0.58 M64.71 649.82 C265.88 423.66, 464.4 193.94, 630.49 -0.35 M65.4 650.23 C233.97 457.3, 402.47 263.78, 630.91 -0.14 M71.16 649.95 C266.2 427.39, 458.94 205.13, 635.47 0.99 M70.62 649.85 C227.78 470.88, 382.17 292.52, 636.18 0.29 M75.74 650.78 C239 466.5, 400.85 281.53, 641.5 -0.95 M76.07 650.43 C218.47 485.55, 360.8 321.77, 641.18 -0.35 M82.23 649.69 C227.33 482.32, 372.59 316.29, 646.5 0.06 M81.75 649.62 C203.66 505.54, 327.44 362.5, 646.23 0.46 M86.44 650.69 C311.73 395.75, 534.19 138.6, 651.34 -0.06 M86.2 650.65 C263.56 450.41, 438.06 249.69, 652.01 -0.37 M92.11 650.56 C270.84 445.1, 448 240.77, 656.46 -0.63 M92.22 649.69 C279.13 438.04, 465.06 224.35, 656.76 0.29 M97.96 650.56 C223.24 503.74, 348.83 359.49, 663.4 -0.63 M96.84 650 C212.3 517.85, 326.97 386.27, 662.78 -0.16 M102.42 650.56 C290.1 431.91, 480.08 215.4, 668.23 0.36 M102.68 650.02 C272.82 455.76, 440.99 262.97, 668.05 0.16 M108.23 649.59 C326.84 395.12, 547.76 142.03, 672.65 -0.6 M107.94 650.38 C254.66 477.6, 403.81 306.46, 673.56 -0.3 M112.79 649.51 C264.6 475.05, 415.36 302.45, 679.06 0.32 M113.69 649.97 C318.97 411.14, 527.19 172.96, 678.09 0.44 M119.17 650.79 C285.47 457.15, 452.15 263.81, 684.05 -0.11 M118.75 650.51 C303.72 437.18, 487.31 226.35, 683.94 0.03 M124.18 650.57 C284.98 467.11, 444.87 283.07, 689.42 -0.48 M123.86 650.23 C252.16 501.41, 383.54 350.53, 689.36 0.32 M129.47 650.61 C251.14 513.07, 371.5 372.56, 694.14 -0.65 M129.04 650.27 C246.56 513.69, 365.93 376.76, 695.01 -0.53 M134.28 650.08 C296.65 465.8, 456.59 281.44, 698.94 0.45 M134.45 650.25 C319.94 433.66, 507.49 218.5, 699.64 -0.25 M140.23 650.87 C360.65 391.61, 585.43 135.01, 704.01 -0.38 M139.47 650.35 C281.9 487.13, 423.67 323.61, 704.31 0.36 M144.03 650.85 C369.3 393.33, 591.81 137.89, 710.46 0.62 M145.08 650.7 C344.86 422.77, 544.61 193.28, 710.45 -0.12 M150.93 650.04 C357.83 409.7, 566.23 170.62, 714.68 0.51 M150.42 650.24 C359.49 406.83, 569.5 165.43, 715.25 0.62 M154.61 650.33 C307.56 472.88, 459.24 298.36, 721.19 -0.25 M155.14 650.13 C347.53 432.67, 536.74 214.96, 720.99 0.28 M160.24 650.38 C292.92 496.75, 424.75 346.33, 725.62 0.3 M160.77 650.22 C382.12 394.37, 605.08 137.25, 725.58 0.18 M165.97 650.19 C386.36 400.15, 605.71 149.51, 731.53 0.56 M165.9 650.05 C371.18 413.25, 576.35 176.66, 731.77 0.09 M171.6 650.78 C383.08 407.23, 593.9 164.24, 736.52 -0.09 M171.51 650.15 C364.07 426.55, 558.85 202.8, 736.83 0.05 M176.05 650.74 C377.31 419, 577.99 187.65, 742.67 0 M176.96 650.59 C332.19 472.35, 485.79 294.93, 741.81 0.04 M182.86 650.73 C375.05 424.84, 568.24 201.55, 747.47 -0.29 M182.12 649.9 C373.99 427.44, 566.57 206.1, 746.81 0.2 M188.01 650.05 C300.84 517.97, 416.54 383.83, 752.6 -0.37 M187.4 650.05 C378.16 427.57, 572.01 204.52, 753.04 -0.32 M193.45 649.53 C408.27 401.78, 622.4 155.95, 758.13 0.25 M192.62 649.73 C362.36 454.47, 532.61 258.92, 758.05 0.03 M198.15 649.66 C364.73 457.65, 532.58 265.13, 763.27 0.02 M197.85 650.14 C316.82 517.89, 433.45 383.27, 763.48 0.12 M203.58 650.3 C365.32 461.14, 528.96 272.35, 768.57 -0.09 M203.91 649.89 C341.18 490.53, 480.65 329.92, 768.59 0.29 M207.99 650.47 C331.78 509.08, 453.8 368.61, 773.45 -0.06 M208.4 649.96 C401.34 427.32, 595.17 203.84, 774.07 -0.31 M213.46 649.58 C417.71 413.57, 622.23 177.95, 778.44 0.48 M214.19 650.22 C434.28 394.89, 654.08 140.98, 778.76 0.37 M218.62 650.44 C376.29 471.62, 530.67 294.59, 784.28 0.38 M219.06 650.39 C434.33 401.71, 649.91 154.18, 785.05 -0.1 M224.08 649.31 C370.3 482.8, 516.51 314.56, 789.37 -0.05 M224.99 649.76 C363.1 490.17, 503.02 329.46, 790.02 0.22 M229.93 650.1 C351.1 514.3, 469.9 377.74, 795.27 -1.03 M229.37 650.54 C453.2 390.83, 676.22 133.78, 795.58 -0.54 M234.82 649.63 C417.46 439.81, 598.18 232.78, 800.98 -0.27 M235.13 649.56 C420.77 436.16, 608.28 219.63, 800.51 0 M239.8 650.22 C404.28 461.68, 570.01 271.68, 805.16 0.3 M240.35 650.47 C361.73 510.66, 481.32 373.84, 805.71 -0.53 M245.19 650.48 C390.44 479.58, 538.91 308.55, 811.68 0.66 M245.29 650.58 C388.59 482.52, 533.53 316.33, 811.09 -0.34 M251.28 649.37 C367.08 511.08, 485.5 375.59, 815.19 -0.03 M250.93 650.06 C419 454.13, 589.29 258.64, 816.15 0.59 M256.64 650.93 C413.7 470.98, 571.05 288.61, 821.07 0.56 M256.22 650.34 C383.09 502.24, 511.76 354.83, 821.74 0.13 M262.21 649.54 C477.78 401.64, 694.23 152.28, 826.15 -0.09 M261.55 650.18 C424.96 463.38, 587.85 276, 826.48 0.38 M266.28 649.72 C456.33 431.64, 646.32 212.6, 832.34 -0.11 M266.79 650.22 C464.37 419.9, 665.06 189.87, 831.91 -0.25 M272.45 650.54 C418.18 481.1, 562.75 314.02, 836.88 0.94 M272.17 649.89 C406.56 494.68, 542.18 337.82, 837.22 -0.1 M276.63 651.06 C439.01 465.47, 600.01 278.65, 843.45 -0.69 M277.08 650.41 C472.84 426.16, 667.48 202.35, 842.59 0.26 M283 650.76 C397.9 520.11, 512.57 386.87, 847.63 0.51 M282.62 650.04 C498.18 404.43, 711.04 158.89, 848.04 0.22 M287.8 650.16 C484.91 423.97, 680.04 199.87, 852.78 0.5 M288.02 650.31 C403.55 516.79, 517.89 384.32, 853.47 -0.02 M293.67 649.65 C418.44 506.01, 543.34 362.25, 858.67 0.71 M293.88 649.69 C503.04 410.5, 710.29 172.49, 858.33 0.4 M298.29 650.07 C419.28 508.93, 542.4 366.99, 864.65 0.53 M298.68 650.54 C489.04 434.45, 677.78 217.33, 864.13 -0.18 M303.87 650.02 C436.83 499.05, 567.59 348.61, 869.43 -0.56 M304.41 649.67 C428.59 503.17, 554.23 358.91, 869.2 0.31 M309.01 649.61 C522.5 407.84, 734.58 163.65, 874.22 -0.89 M309.03 650.07 C445.48 496.95, 579.81 341.59, 874.46 -0.3 M314.98 649.34 C537.74 396.91, 757.02 142.63, 879.35 0.8 M314.57 649.82 C432.64 514.4, 550.07 378.04, 879.83 0.21 M319.22 650.66 C530.04 408.08, 738.93 167.31, 885.8 -0.64 M319.54 650.68 C445.09 509.59, 568.04 368.79, 885.08 -0.27 M324.78 650.06 C539.01 408.85, 749.49 166.18, 890.24 -0.1 M325.45 650.17 C514.31 428.59, 704.82 209.12, 890.33 0.36 M330.59 650.87 C522.54 432.82, 712.62 214.15, 896.1 -1.01 M330.8 650.16 C483.08 476.84, 635.56 302.12, 896.1 -0.21 M336.21 649.27 C498.66 465.18, 661.22 278.21, 900.69 -0.32 M336.03 649.75 C488.16 473.1, 640.54 297.39, 901.33 -0.21 M341.59 650.92 C496.99 470.53, 651.78 293.55, 906.23 -0.85 M340.7 649.87 C564.29 396.74, 786.41 142.01, 906.72 -0.02 M347.03 650.64 C550.45 414.96, 754.41 180.16, 911.71 0.48 M346.8 650.17 C466.34 511.65, 587.3 372.25, 911.92 -0.05 M351.44 650.52 C557.33 413.71, 764.54 175.66, 917.66 0.37 M352.01 650.39 C511.33 469.4, 670.86 287.32, 917.27 -0.6 M356.33 650.02 C499.75 484.75, 644.36 318.26, 922.68 -0.74 M356.31 650.4 C486.53 501.85, 616.58 352.33, 922.55 0.27 M362.58 650.76 C518.05 474.25, 672.33 296.53, 928.26 0.24 M362.46 650.25 C491.35 502.19, 621.18 351.87, 927.97 -0.29 M367.92 650.84 C566.1 423.48, 764.49 195.42, 932.15 -0.01 M367.36 650.53 C549.85 441.71, 730.44 233.97, 932.93 0.18 M373.42 650.16 C501.02 501.62, 630.34 354.5, 937.25 -0.34 M373.04 650.43 C506.74 500.72, 637.93 349.06, 937.91 -0.05 M377.67 650.15 C522.86 483.1, 670.61 313.1, 943.49 0.04 M377.91 650.33 C570.54 427.38, 762.51 206.09, 943.32 0.29 M383.97 650.25 C575.67 428.81, 769 206.08, 948.57 0.73 M383.66 649.87 C541.93 468.5, 699.9 286.93, 948.83 0.28 M388.08 650.9 C572.93 440.22, 754.35 231.01, 954.43 0.61 M388.87 650.57 C556.74 457.51, 723.13 266.22, 954.04 -0.37 M393.42 649.99 C566.84 450.91, 741.36 251.59, 959.82 0.79 M394.34 649.89 C541.48 481.42, 688.81 311.75, 959.24 0.51 M398.83 650.64 C568.14 456.3, 735.53 263.16, 964.3 -0.5 M399.07 650.25 C531.96 497.82, 662.8 346.88, 964.36 -0.01 M404.14 649.71 C563.32 465.8, 724.54 282.25, 970.41 -0.14 M404.81 649.85 C552.72 478, 701.18 306.73, 969.77 -0.11 M409.18 650.33 C570.04 470.97, 727.19 288.91, 974.82 -0.06 M409.63 650.14 C610.71 421.57, 810.75 191.79, 975.22 -0.01 M416.11 650.4 C539.97 507.76, 662.36 367.3, 980.15 0.56 M415.69 649.86 C567.92 470.24, 722.5 292.36, 980.59 -0.12 M420.41 650.34 C638.81 402.94, 854.83 153.78, 986.09 0.15 M420.4 650.02 C594.77 448.8, 768.99 248.83, 985.69 -0.58 M426.07 649.62 C607.24 439.25, 787.63 230.41, 991.64 0.92 M425.74 649.64 C584.58 469.88, 741.63 289.25, 990.97 0.52 M431.76 649.67 C576.34 484.71, 719.91 319.9, 995.81 0.57 M431.1 650.67 C595.09 462.87, 758.64 274.24, 996.53 -0.34 M436.37 650.39 C657.09 396.79, 879.09 140.91, 1001.46 0.01 M436.98 649.71 C639.72 417.77, 841.53 185, 1001.27 0.04 M441.26 649.91 C644.38 416.72, 848.38 180.83, 1006.45 -0.13 M441.79 650.23 C636.54 423.02, 832.02 198.12, 1007.43 0.1 M447.74 650.69 C617.68 453.76, 788.92 257.98, 1012.2 0.27 M447.17 650.18 C669.83 391.12, 893.78 133.92, 1012.58 0.07 M452.94 649.66 C625.35 453.47, 796.54 256.78, 1018.08 -1.09 M452.41 650.26 C603.93 477.58, 755.72 302.73, 1018.16 -0.69 M458.5 649.15 C626.59 454.53, 795.03 260.34, 1023.6 0.39 M458.16 649.55 C668.09 406.91, 878.88 165.51, 1023.08 0.45 M463.21 650.17 C634.43 455.24, 803.38 260.93, 1029.15 -0.03 M463.23 650.52 C630.88 455.11, 800.96 259.02, 1028.21 -0.52 M468.54 650.6 C638.83 453.8, 810.48 257.99, 1033.41 -0.75 M468.32 649.91 C620.15 476.52, 770.27 304.11, 1033.25 0.38 M472.85 649.66 C645.23 453.75, 816.83 255.4, 1038.9 -0.46 M473.62 650.14 C605.08 498.06, 736.65 347.38, 1038.78 -0.44 M477.9 650.03 C602.4 509.06, 725.38 365.61, 1044.57 -0.05 M478.66 650.91 C678.51 422.96, 877.69 193.31, 1043.9 -0.33 M484.67 650.58 C652.17 458.4, 816.15 268.92, 1049.11 1.09 M484.03 650.46 C654.81 455.12, 824.71 259.17, 1049.3 0.46 M488.57 651.2 C616.38 503.89, 741.96 360.34, 1054.81 -0.59 M489.46 650.32 C662.42 449.18, 836.88 248.53, 1054.93 -0.06 M494.63 650.8 C702.02 410.77, 908.59 172.67, 1059.5 0.02 M494.86 649.81 C663.01 458.66, 829.94 266.7, 1059.7 0.02 M499.77 651.12 C652.04 477.1, 802.86 302.79, 1065.42 0.34 M499.96 650.58 C675.44 450.53, 849.22 249.84, 1065.74 0.17 M505.49 650.79 C648.05 483.09, 793.55 316.24, 1071.03 0.22 M505.19 650.32 C649.37 486.91, 791.17 324.15, 1070.03 0.36 M509.74 650.68 C729.35 402.11, 946.12 152.63, 1075.72 -0.72 M510.53 650.55 C692.9 442.59, 875.12 233.04, 1075.66 -0.43 M516.4 649.63 C638.57 509.43, 761.94 366.61, 1081.28 0.63 M516.4 650.3 C716.57 421.08, 914.09 193.08, 1081.1 0.4 M520.73 649.78 C733.84 405.7, 947.78 158.26, 1086.98 0.19 M520.88 650.7 C649.83 503.02, 776.25 358.33, 1086.7 -0.48 M526.9 650.64 C714.76 429.94, 904.76 210.83, 1091.03 0.01 M527 650.27 C656.95 503.89, 785.46 355.94, 1091.86 0.28 M531.77 649.7 C722.78 432.22, 914.02 211.71, 1096.88 -0.78 M531.99 650.29 C688.3 469.52, 846.41 286.87, 1097.59 0 M537.69 649.3 C662.99 505.68, 786.38 364.04, 1101.85 0.93 M537.78 650.12 C686.26 478.58, 834.8 307.2, 1102.11 0.13 M542.67 650.78 C720.9 442.88, 900.84 235.1, 1108.27 -0.05 M542.59 650.16 C689.05 481.58, 835.87 312.17, 1108.17 -0.03 M548.31 650.17 C718.57 455.92, 887.38 260.49, 1112.09 -0.64 M548.26 649.56 C710.68 464.77, 872.72 278.69, 1113.02 0.46 M553.24 649.95 C699.27 481.17, 845.95 312.79, 1118.81 -0.23 M552.67 649.97 C740.66 437.9, 926.24 223.92, 1118.17 -0.58 M559.44 649.96 C753.03 424.65, 947.77 201.19, 1124.09 -0.1 M558.64 650.08 C713.25 470.38, 867.94 291.9, 1123.4 0.2 M564.06 649.54 C717.91 474.7, 869.88 297.93, 1129.72 0.27 M563.96 650.16 C760.28 421.14, 958.57 192.95, 1129.25 -0.3 M568.97 649.63 C761.1 428.19, 952.76 207.01, 1133.79 0.55 M569.46 649.77 C711.61 482.39, 855.73 316.86, 1134.22 0.24 M574.13 650.11 C767.59 425.38, 962.5 201.12, 1140.24 0.07 M573.88 649.95 C797.02 397.94, 1017.87 144.39, 1139.75 -0.03 M579.17 650.33 C692.27 520.92, 806 390.62, 1144.29 -0.06 M579.54 650.1 C694.07 520.08, 807.9 388.89, 1144.94 -0.1 M584.79 649.64 C726.24 487.15, 866.87 325.12, 1149.97 0.39 M584.76 650.17 C700.52 517.32, 818.18 382.1, 1150.74 -0.03 M590.44 650.21 C747.31 474.28, 900.78 295.99, 1155.51 -0.3 M589.75 650.71 C780.46 431.37, 971.36 211.99, 1155.51 -0.34 M595.81 650.7 C722.06 505.83, 847.69 360.73, 1160.65 0.23 M595.45 650.45 C802.29 413.15, 1007.26 177.48, 1160.12 0.4 M599.95 650.14 C728.62 504.15, 854.65 360.56, 1166.53 0.46 M600.45 650.75 C734.03 496.38, 866.63 343.6, 1166 0.02 M606.13 650.08 C768.05 462.04, 930.49 274.84, 1171.59 0.52 M606.48 650.4 C785.08 445.5, 963.35 240.86, 1171.27 0.3 M611.27 651.07 C807.33 426.68, 1002.49 202.46, 1176.43 -0.52 M611.14 650.63 C785.41 445.03, 961.62 242.01, 1176.99 0.26 M616.27 650.79 C811.95 426.28, 1004.22 204.52, 1181.28 -0.12 M616.5 650.02 C798.14 441.05, 978.45 233.32, 1181.53 0.33 M621.83 650.21 C771.64 481.33, 918.92 310.61, 1186.68 -0.57 M621.86 650.22 C814.35 428.01, 1006.92 207.31, 1187.55 -0.35 M627.56 650.05 C767.99 484.66, 909.98 321.89, 1192.51 0.39 M627.47 650.12 C813.17 436.42, 1000.67 221.05, 1192.37 0.24 M632.63 650.59 C758.53 506.94, 885.25 362.11, 1197.13 -0.4 M632.17 650.77 C822.28 432.17, 1011.1 215.09, 1198.08 0.28 M638.09 649.7 C848.89 409.47, 1060.21 167.21, 1202.81 -0.48 M637.86 650.3 C811.56 452.25, 984.25 253.11, 1202.79 -0.08 M642.68 650.64 C759.38 520.2, 873.35 389.37, 1208.42 -0.13 M643.14 650.51 C790.08 480.45, 936.84 311.62, 1208.28 0.19 M648.36 650.56 C777.78 503.59, 906.61 355.54, 1213.32 0.59 M648.62 650.14 C814.17 456.96, 979.99 266.53, 1213.67 -0.09 M652.95 649.82 C879.3 391.28, 1105.39 130.5, 1219.59 -0.05 M653.73 650.67 C841.16 433.52, 1027.24 218.64, 1219.12 -0.55 M658.85 650.1 C785.46 507.09, 908.89 364.39, 1224.75 0.7 M659.64 649.62 C855.12 425.58, 1050.81 200.59, 1224.23 0.09 M664.03 650.98 C857.21 426.53, 1053.65 200.69, 1230.44 0.16 M664.44 650.3 C838.18 450.79, 1012.27 249.84, 1230.14 -0.28 M669.22 649.59 C853.06 441.31, 1036.71 228.86, 1235.03 -0.42 M670.1 650.33 C788.11 511.58, 907.06 373.98, 1234.77 0.18 M675.27 650.01 C895.08 392.79, 1118.13 135.92, 1240.79 -0.97 M675.24 650.62 C791.49 517.17, 907.51 383.73, 1240.53 -0.17 M680.72 650.11 C796.37 520.1, 910.46 387.97, 1244.85 0.36 M680.47 650.24 C813.77 495.54, 947.11 342.21, 1245.51 0.06 M685.61 650.98 C815.09 500.55, 943.39 353.49, 1251.21 0.5 M685.21 650.63 C901.53 401.94, 1116.25 155.16, 1251.21 -0.58 M690.6 650.15 C852.52 465.2, 1012.58 280.36, 1255.3 0.8 M691.37 649.7 C842.94 474.17, 994.37 299.04, 1256.16 0.21 M696 651 C890.45 425.31, 1088.06 199.22, 1262.3 0.33 M696.17 649.96 C829 494.14, 963.73 339.58, 1262.02 -0.66 M702.49 649.61 C854.95 473.1, 1008.74 295.57, 1267.03 0.45 M701.48 649.48 C900.27 424.28, 1098 196.01, 1266.37 -0.27 M706.95 650.57 C933.89 392.09, 1158.32 134.67, 1272.22 -0.32 M706.61 650.01 C897.92 431.59, 1088.57 211.87, 1272.07 -0.4 M712.14 649.77 C862.06 478.62, 1010.84 309.74, 1277.93 -0.11 M712.16 650.28 C841.07 504.1, 968.98 357.23, 1277.65 -0.13 M717.78 649.63 C847.7 501.17, 978.34 350.58, 1281.66 0.3 M717.73 650.37 C875.17 469.13, 1033.74 286.6, 1281.96 0.59 M722.08 651.06 C839.23 513.67, 956.71 378.15, 1288.63 -0.09 M722.43 650.14 C856.73 499.63, 990.2 346.44, 1288.26 -0.28 M727.39 649.91 C865.86 493.93, 1000.95 338.62, 1292.48 0.66 M728.27 650.05 C853.01 505.36, 978.93 360.05, 1292.74 0.4 M733.63 650.36 C874.46 488.06, 1015.39 326.33, 1297.91 1.46 M733.45 650.16 C856.76 509.31, 980.21 367.21, 1297.68 0.48 M738.25 649.36 C869.45 499.01, 1002.01 345.99, 1297.05 6.52 M738.83 650.22 C940.62 415.14, 1144.23 180.75, 1297.29 7.39 M743.98 650.03 C854.64 521.12, 967.35 391.72, 1298.81 12.32 M743.55 650.26 C861.62 514.25, 980.09 378.43, 1298.38 12.58 M749.24 649.34 C948.9 422.99, 1148.25 194.97, 1297.99 18.39 M749.14 649.86 C887.17 489.64, 1026.94 328.64, 1298.08 19.25 M754.29 649.85 C893.96 490.4, 1034.56 328.24, 1298.98 24.19 M754.35 650.37 C946.32 426.47, 1140.31 203.4, 1298.16 25.14 M759.62 650.62 C965.81 414.08, 1170.56 177.88, 1298 31.21 M760.04 650.16 C915.45 468.84, 1072.16 288.35, 1298.18 31.11 M765.72 650.99 C918.66 478.03, 1068.67 304.22, 1298.36 37.86 M764.81 650.02 C970.82 416.16, 1173.59 182.88, 1297.42 37.17 M769.84 649.4 C978.86 411.26, 1184.6 174.11, 1297.57 42.63 M770.68 650.07 C888.47 513.31, 1005.22 378.72, 1297.74 43.33 M775.4 650.44 C946.95 455.43, 1115.3 260.45, 1297.65 49.68 M775.55 650.32 C942.32 455.39, 1111.68 260.9, 1298.06 49.98 M780.73 649.27 C942.05 467.06, 1103.14 282.47, 1298.13 55.66 M781.28 649.96 C906.07 505.08, 1030.35 362.25, 1297.59 55.88 M786.87 649.82 C938.25 471.95, 1091.3 295.54, 1298.37 61.66 M786.13 650.37 C895.19 524.61, 1003.87 399.13, 1298.3 61.77 M791.12 649.25 C984.6 423.48, 1180.72 200.88, 1297.46 68.45 M792.02 649.58 C940.94 478.86, 1088.51 309.06, 1297.42 68 M796.44 649.73 C953.19 471.69, 1108.72 293.41, 1298.28 74.48 M797.01 650.08 C986.89 430.46, 1177.28 211.58, 1298.11 73.75 M801.81 649.35 C945.89 483.79, 1088.81 319.7, 1297.74 79.65 M802.55 650.09 C984.08 442.34, 1164.73 233.32, 1297.86 80.03 M806.81 650.62 C968.71 466.62, 1128.24 283.3, 1297.26 86.57 M807.54 650.54 C979.6 449.56, 1152.85 249.57, 1297.54 86.51 M813.2 649.81 C919.77 523.44, 1027.84 399.35, 1297.83 92.54 M813.22 649.61 C913.37 535.42, 1012.46 421.36, 1297.91 92.33 M818.29 650.32 C960.32 483.15, 1104.79 316.22, 1297.56 98.33 M818 650.45 C993.02 451.84, 1167.19 252.53, 1297.29 98.13 M823.83 651.05 C922.16 534.22, 1023.81 417.06, 1298.15 103.83 M823.27 650.86 C1013.03 432.99, 1200.85 216.52, 1297.85 104.06 M827.94 649.68 C952.69 509.63, 1073.81 368.15, 1297.46 111.02 M828.36 650.49 C937.17 528.55, 1044.23 404.43, 1297.61 110.78 M833.77 649.81 C931.29 537.27, 1028.05 424.95, 1297.66 116.4 M833.77 650.44 C961.49 504.4, 1090.04 356.63, 1297.46 116.73 M840.03 650.19 C936.45 539.53, 1033.45 428.41, 1297.86 122.98 M839.5 650.52 C966.69 502.9, 1094.9 355.34, 1298.1 122.47 M844.73 650.92 C1026.41 442.81, 1208.48 234.45, 1297.27 129.06 M844.17 650.23 C951 527.66, 1056.83 405.43, 1297.33 129.16 M849.21 649.91 C954.22 531.54, 1057.16 413.5, 1297.65 134.32 M849.61 650.04 C953.4 530.75, 1058.35 409.93, 1298.29 134.58 M855.47 650.67 C981.4 508.27, 1105.66 365.76, 1298.33 140.32 M855.23 650.76 C942.73 549.69, 1031.96 447.19, 1297.85 140.87 M860.53 650.75 C1024.85 462.22, 1189.16 273.32, 1297.07 146.97 M860.98 650.08 C1000.37 491.2, 1138.35 333, 1297.34 147.45 M865.1 651.15 C1036.06 456.76, 1204.04 261.8, 1298.01 152.52 M865.68 650.73 C1020.01 472.33, 1175.36 293.49, 1298.14 153.37 M871.02 649.6 C1035.5 462.3, 1197.78 275.58, 1297.91 159.16 M871.61 649.73 C1018.94 483.13, 1164.95 315.8, 1297.88 159.35 M875.56 649.88 C1040.4 460.26, 1204.61 273.12, 1297.47 165.44 M876.49 650.64 C977.78 533.67, 1079.07 416.53, 1298.22 165 M881.69 650.38 C1029.61 480.06, 1178.6 309.39, 1297.16 170.84 M882.01 649.62 C977.02 537.23, 1073.49 426.27, 1297.7 171.41 M887.55 650.19 C1032.51 483.22, 1179.99 313.17, 1297.22 177.82 M886.6 650.01 C980.34 543.33, 1072.83 436.31, 1297.18 177.63 M891.94 650.43 C1010.15 513.67, 1127.78 379.3, 1298.47 182.99 M892.39 650.01 C1015.77 510.09, 1137.51 370.05, 1298.34 183.41 M898.17 650.81 C1022.88 506.14, 1148.09 362.54, 1297.31 189.92 M897.2 650.11 C992.59 539.16, 1088.64 428.9, 1297.77 190.06 M903.57 649.29 C1040.21 493.54, 1175.5 337.63, 1297.88 196 M903.07 650.33 C1045.21 485.76, 1188.65 321.18, 1298.44 195.69 M908.12 649.89 C1020.07 519.78, 1134.38 388.5, 1297.41 202.53 M908.23 650.44 C1008.29 534.17, 1110.32 416.94, 1298.09 202.17 M913.56 649.52 C1048.87 491.99, 1185.32 335.79, 1298.35 208.04 M914.07 649.62 C1001.98 546.85, 1091.21 444.38, 1297.5 208.78 M919.25 650.59 C1014.93 538.77, 1112.93 426.59, 1298.64 214.65 M918.7 649.87 C1001.24 557.44, 1082.32 464.59, 1297.79 213.84 M924.47 649.47 C1051.91 501.52, 1179.75 352.48, 1297.21 220.84 M924.72 650.1 C1007.5 554.43, 1088.77 460.62, 1298.09 220.7 M929.03 650.68 C1004.85 561.46, 1082.46 473.17, 1297.29 226.72 M929.57 650.28 C1027.11 536.23, 1127.1 421.3, 1297.83 226.18 M934.99 651.3 C1009.01 565.6, 1082.75 479.53, 1297.4 232.17 M934.21 650.35 C1019.88 553.99, 1104.43 456.44, 1297.53 232.76 M939.31 649.76 C1032.6 543.14, 1124.93 436.75, 1297.81 238.92 M940.05 650.54 C1067.91 504.24, 1193.28 359.48, 1297.83 238.63 M944.99 650.67 C1084.83 489.63, 1226.43 326.7, 1298.1 244.9 M945.39 650.67 C1043.83 536.12, 1144.38 420.44, 1298.07 244.5 M950.72 650.02 C1073.82 508.48, 1197.12 366.27, 1296.99 250.62 M950.51 650.11 C1031.38 558.62, 1111.14 466.35, 1297.48 251.17 M955.53 650.16 C1052.88 540.47, 1148.39 429.32, 1298.08 257.27 M955.66 650.83 C1086.1 502.22, 1215.4 353.54, 1297.91 256.43 M961.89 650.68 C1084.67 508.36, 1209.17 365.87, 1298.44 262.43 M961.19 650.24 C1036.54 564.39, 1111.76 478.38, 1297.79 262.82 M965.94 650.58 C1087.44 510.75, 1209.78 370.92, 1297.46 269.33 M966.36 650.62 C1037.75 566.69, 1110.06 483.31, 1297.26 269.65 M971.82 650.36 C1101.43 501.09, 1231.09 350.56, 1298.41 275.64 M971.85 650.38 C1069.97 538.45, 1167.31 427.19, 1297.76 274.65 M977.12 650.98 C1063.47 554.04, 1146.74 456.6, 1297.89 280.61 M976.97 650.24 C1076.53 536.58, 1176.08 420.98, 1297.42 281.57 M982.3 649.44 C1068.37 550.98, 1152.46 453.05, 1298.78 287.34 M982.13 650.18 C1098.92 516.25, 1214.75 382.62, 1298.08 286.94 M987.53 651 C1094.88 530.19, 1200.32 409.36, 1297.83 294.14 M987.88 650.73 C1066.15 557.24, 1146.95 465.1, 1298.09 293.2 M994.07 649.45 C1063.23 567.55, 1132.45 486.43, 1297.36 299.98 M992.86 649.84 C1112.85 510.28, 1233.52 371.1, 1297.72 299.45 M999.02 649.91 C1073.5 564.46, 1147.3 478.03, 1297.57 305.53 M998.29 650.12 C1076.27 559.64, 1153.86 470.79, 1297.73 305.09 M1003.7 650.64 C1080.83 560.24, 1159.11 470.77, 1298.44 310.99 M1003.95 649.84 C1090.99 549.15, 1180.12 446.52, 1297.6 312.34 M1008.87 649.61 C1072.96 575.63, 1136.88 501, 1297.96 316.52 M1008.33 649.91 C1070.52 580.64, 1132.31 510.02, 1297.77 317.66 M1013.56 650.49 C1122.04 530.16, 1227.33 408.15, 1296.82 323.74 M1014.7 649.52 C1081.81 571.87, 1149.47 493.66, 1298.32 323.79 M1020.01 650.08 C1122.8 534.23, 1225.08 417.2, 1296.75 330.37 M1019.9 650.42 C1077.62 582.89, 1137.47 513.39, 1297.13 330.33 M1026.08 650.49 C1102.65 560.68, 1180.35 470.34, 1298.79 335.73 M1025.14 649.39 C1112.32 550.17, 1197.92 451.34, 1298.26 336.06 M1030.51 649.91 C1125.09 538.39, 1221.32 427.39, 1298.27 343.36 M1029.92 649.76 C1102.18 569.22, 1173.12 487.75, 1298.12 341.86 M1035.63 649.41 C1130.65 540.52, 1226.08 429.76, 1298.38 348.21 M1035.81 649.78 C1112.92 563.03, 1189.38 474.95, 1298.49 347.88 M1040.3 649.46 C1134.41 543.19, 1227.7 434.99, 1297.91 353.82 M1041.2 649.74 C1133.12 543.35, 1224.51 438.54, 1297.66 354.82 M1046.68 650.8 C1118.84 567.05, 1190.53 481.67, 1298.36 361.94 M1045.99 650.18 C1115.41 570.34, 1184.58 490.65, 1297.38 360.9 M1050.53 650.07 C1126.56 563.3, 1202.1 478.23, 1298.83 365.3 M1051.19 650.06 C1145.66 541.57, 1239.27 434.53, 1298.15 366.19 M1057.09 651.31 C1146.74 544.76, 1237.01 442.74, 1296.71 372.64 M1055.91 650.41 C1108.66 588.93, 1161.75 528.28, 1297.16 372.76 M1062.54 650.51 C1112.18 591.35, 1160.96 536.97, 1299.06 377.3 M1061.47 649.74 C1115.57 589.04, 1168.18 527.8, 1298.54 379.01 M1065.77 650.08 C1124.15 581.43, 1185.41 512.73, 1297.88 384.01 M1066.48 650.75 C1118.97 590.13, 1170.11 529.7, 1298.39 384.5 M1071.26 650.33 C1127.76 586.34, 1183.98 520.82, 1298.9 391.63 M1072.79 650.24 C1137.31 576.9, 1200.99 502.2, 1297.4 390.7 M1077.94 650.35 C1163.56 549.97, 1251.69 447.61, 1297.07 396.48 M1077.07 651.06 C1132.63 588.4, 1186.58 526.6, 1297.99 397.15 M1084.49 651.43 C1148.7 574.57, 1213.36 500.38, 1297.32 402.88 M1082.74 649.83 C1156.58 562.79, 1230.63 476.98, 1297.75 403.06 M1088.58 649.79 C1169.18 556.89, 1251.48 462.86, 1298.44 408.83 M1087.57 650.58 C1166.35 559.78, 1246.19 468.05, 1298.11 409.06 M1092.71 651.42 C1134.68 599.42, 1179.71 551.5, 1297.38 414.77 M1094.42 650.78 C1153.78 579.43, 1214.36 509.85, 1297.17 416.02 M1098.32 650.44 C1147.77 592.55, 1198.01 533.83, 1297.41 422.92 M1098.38 650.98 C1173.37 565.02, 1248.07 479.26, 1297.2 421.24 M1105.63 650.11 C1157.64 586.85, 1214.37 523.05, 1296.67 428.2 M1104.95 650.49 C1146.15 603.01, 1189.21 553.68, 1297.89 427.51 M1110.17 649.02 C1172.73 578.33, 1233.09 509.7, 1298.29 433.68 M1109.81 650.05 C1170.35 578.19, 1231.57 507.65, 1297.21 434.02 M1114.45 648.5 C1151.73 604.63, 1192.36 560.65, 1299.3 439.96 M1115.82 650.58 C1169.38 586.93, 1223.22 523.8, 1298.49 439.34 M1118.98 649.99 C1189.11 574.9, 1256.81 495.27, 1297.58 446.75 M1119.67 651.09 C1188.9 571.98, 1255.89 493.83, 1297.67 446.3 M1124.93 650.58 C1191.49 576.67, 1256.37 498.53, 1298.95 450.74 M1124.96 650.51 C1179.74 588.24, 1233.46 525.48, 1298.03 451.58 M1130.91 649.18 C1184.01 590.66, 1237.09 530.83, 1296.86 459.3 M1130.13 650.16 C1169.91 603.13, 1209.39 557.9, 1297.38 457.58 M1135.45 648.93 C1191.84 589.5, 1245.38 527.94, 1297.84 464.37 M1136.86 649.64 C1191.59 585.14, 1248.4 520.1, 1298.17 464.79 M1140.49 650.64 C1179.92 604.73, 1217.61 559.08, 1297.92 471.01 M1140.94 650.72 C1176.67 608.57, 1212.25 567.21, 1297.68 469.77 M1147.5 648.34 C1190.09 601.13, 1232.67 549.81, 1298.88 477.9 M1147.46 649.82 C1187.81 601.17, 1229.99 554.6, 1298.43 475.68 M1150.9 649.06 C1187.46 610.43, 1221.59 570.51, 1296.92 483.61 M1151.64 650.21 C1189.36 607.93, 1225.28 566.62, 1297.98 482.37 M1157.49 648.59 C1194.32 611.61, 1225.42 572.66, 1296.44 489.34 M1157.65 649.57 C1196.61 604.77, 1235.52 560.06, 1297.95 488 M1163.09 651.38 C1208.59 593.65, 1256.47 538.63, 1298.67 496.3 M1162.39 650.59 C1195.03 612.97, 1225.74 576.74, 1297.2 495.06 M1167.93 649.64 C1203.72 607.05, 1243.97 565.28, 1297.66 500.56 M1167.09 650.73 C1211.57 599.52, 1253.86 550.07, 1297.26 501.07 M1173.52 651.32 C1200.24 620.02, 1226.1 591.37, 1297.16 508.47 M1173.12 650.96 C1207.63 610.7, 1243.47 569.98, 1297.72 506.24 M1177.94 650.9 C1210.73 613.56, 1242.56 577.08, 1295.99 513 M1177.86 651.08 C1216.95 607.07, 1252.55 565.24, 1297.33 514.15 M1182.74 651.45 C1208 621.06, 1235.24 593.56, 1297.97 517.53 M1184.57 649.46 C1219.75 607.33, 1254.46 566.14, 1298.59 518.09 M1188.49 649.17 C1221.62 612.95, 1257.99 573.65, 1296.77 526.62 M1189.27 651.51 C1220.65 615.69, 1250.16 580.91, 1296.78 524.69 M1194.67 651.63 C1228.51 608.66, 1265.58 570.77, 1297.18 531.03 M1195.18 650.94 C1217.3 622.16, 1240.25 595.93, 1298.78 531 M1199.17 650.16 C1231.76 610.7, 1265.35 575.74, 1296.55 538.06 M1199.57 650.18 C1220.9 624.76, 1243.25 599.93, 1296.98 537.89 M1206.16 650.1 C1241.55 611.16, 1272.41 572.66, 1298.08 544.6 M1204.21 649.67 C1237.32 613.56, 1267.63 578.16, 1297.96 543.07 M1209.57 651.15 C1236.63 619.01, 1263.72 585.31, 1299.52 547.71 M1210.25 650.24 C1235.55 621.11, 1260.39 591.41, 1297.76 548.72 M1217.01 649.65 C1234.73 631.92, 1248.31 611.51, 1295.9 557.17 M1216.65 650.42 C1244.33 618.27, 1271.17 585.73, 1298.02 556.09 M1221.21 650.93 C1236.57 631.95, 1252.86 614.51, 1298.82 562.52 M1221.07 650.83 C1248.71 617.15, 1277.48 585.54, 1297.72 561.59 M1227.99 651.58 C1254.3 617.11, 1281.31 586.28, 1299.87 569.44 M1226.28 649.44 C1251.52 620.47, 1276.72 589.66, 1298.13 567.13 M1231.62 651.82 C1250.55 632.18, 1264.21 612.05, 1297.92 574.71 M1231.07 650.04 C1251.16 628.19, 1271.79 603.86, 1298.53 574.2 M1238.84 649.75 C1261.55 621.49, 1283.72 596.53, 1297.84 578.88 M1236.64 649.46 C1253.68 630.46, 1270.61 611.29, 1298.41 580.47 M1240.26 649.69 C1255.47 631.92, 1270.77 613.54, 1299.22 584.76 M1241.54 649.99 C1257.46 631.54, 1273.01 613.87, 1298.64 585.42 M1246.29 648.52 C1261.98 635.04, 1275.31 617.65, 1297.64 590.52 M1248.04 650.68 C1257.79 637.98, 1268.51 625.59, 1298.24 591.38 M1254.59 651.93 C1267.28 633.15, 1285.67 612.32, 1298.11 599.97 M1253.05 649.74 C1264.49 636.19, 1275.82 622.6, 1298.26 598.91 M1258.01 648.79 C1266.67 637.51, 1279.56 624.48, 1296.39 603.65 M1258.53 649.82 C1267.94 637.82, 1277.18 627.71, 1298.59 603.87 M1264.02 651.45 C1273.72 635.42, 1287.38 623.41, 1299.63 609.38 M1262.41 650.39 C1272.76 638.02, 1283.24 626.43, 1297.05 611.03 M1270.65 650.01 C1276 642.44, 1282.72 635.1, 1297.17 614.84 M1268.97 649.05 C1276.96 640.98, 1286.48 629.77, 1297.68 616.67 M1273.93 648.7 C1280.26 645.88, 1284.58 639.85, 1299.77 622.6 M1273.73 649.96 C1279.12 643.96, 1284.68 635.91, 1298.42 622.64 M1279.83 648.14 C1283.18 645.3, 1289.08 638.51, 1299.05 628.46 M1279.94 649.05 C1283.67 645.47, 1287.66 639.19, 1298.03 628.75 M1283.69 649.68 C1288.8 644.3, 1290.79 641.76, 1298.82 636.5 M1285.37 650.5 C1288.28 646.21, 1290.72 642.03, 1297.88 634.83 M1289.49 650.48 C1292.52 647.16, 1293.91 643.75, 1297.84 640.03 M1289.92 650.67 C1292.59 646.12, 1296.29 643.39, 1298.06 641.13 M1295.43 650.51 C1295.85 649.4, 1296.63 648.39, 1297.82 646.96 M1295.1 650.34 C1295.92 649.33, 1296.93 648.4, 1297.95 647.1" stroke="white" stroke-width="0.5" fill="none"></path><path d="M-0.4 -0.64 C289.9 -2.05, 580.38 -1.34, 1296.5 0.16 M0.04 0.19 C417.38 -5.27, 834.33 -5.1, 1297 -0.06 M1297.36 -0.04 C1298.07 232.3, 1296.78 464.13, 1296.76 649.27 M1296.63 -0.01 C1297.39 205.7, 1297.22 411.11, 1297.37 648.74 M1296.5 648.89 C975.68 645.25, 654.64 645.12, -0.11 648.16 M1297.13 648.36 C856.79 650.43, 416.14 650.25, -0.25 648.96 M-0.4 648.04 C1.55 507.37, 1.73 364.35, 0.41 0.09 M0.21 648.91 C-0.21 485.42, -0.41 323.36, 0.17 -0.18" stroke="#000000" stroke-width="1" fill="none"></path></g><g stroke-linecap="round" transform="translate(107.5 405.2823129251701) rotate(0 161 112.5)"><path d="M0.94 1.95 L323.09 1.3 L321.79 223.86 L0.95 226.07" stroke="none" stroke-width="0" fill="#000000"></path><path d="M-0.73 1.03 C67.09 -1.84, 136.67 -1.3, 322.47 -0.14 M0.28 0.27 C102.25 1.36, 203.58 1.29, 321.65 -0.44 M320.61 -1.5 C319.12 44.8, 319.68 89.77, 323.47 223.83 M321.58 0.05 C323.13 55.17, 323.73 109.31, 321.21 224.45 M322.51 226.24 C195.55 224.02, 71.81 225.09, -0.56 225.41 M322.21 225.64 C206.41 224.64, 90.17 223.73, 0.08 224.74 M0.38 226.62 C0.19 145.78, -1.18 63.32, -0.96 -1.57 M0.03 224.31 C1.09 174.58, -0.05 124.62, -0.33 0.34" stroke="#000000" stroke-width="2" fill="none"></path></g><g transform="translate(136.5 414.2823129251701) rotate(0 24 22.5)"><text x="0" y="32" font-family="Virgil, Segoe UI Emoji" font-size="36px" fill="#40c057" text-anchor="start" style="white-space: pre;" direction="ltr">&gt;_</text></g><g stroke-linecap="round" transform="translate(922.5 63.28231292517012) rotate(0 139 186.5)"><path d="M0 0 L278 0 L278 373 L0 373" stroke="none" stroke-width="0" fill="#228be6"></path><path d="M0 0 C66.29 0, 132.59 0, 278 0 M0 0 C103.83 0, 207.67 0, 278 0 M278 0 C278 114.52, 278 229.03, 278 373 M278 0 C278 126.28, 278 252.57, 278 373 M278 373 C174.21 373, 70.42 373, 0 373 M278 373 C189.13 373, 100.26 373, 0 373 M0 373 C0 256.73, 0 140.46, 0 0 M0 373 C0 293.71, 0 214.41, 0 0" stroke="#000000" stroke-width="2" fill="none"></path></g><g transform="translate(974.5 169.28231292517012) rotate(0 89 -8.5)" stroke="none"><path fill="#000000" d="M -10.18,-1.45 Q -10.18,-1.45 -9.74,-5.52 -9.29,-9.58 -6.66,-15.80 -4.02,-22.02 -0.32,-24.76 3.37,-27.50 8.74,-28.71 14.11,-29.91 19.34,-29.08 24.58,-28.24 30.62,-25.37 36.67,-22.49 42.58,-20.13 48.48,-17.77 54.31,-16.19 60.13,-14.60 65.07,-14.35 70.01,-14.09 74.58,-16.15 79.14,-18.22 85.25,-19.83 91.36,-21.44 96.05,-22.60 100.74,-23.76 107.38,-23.85 114.01,-23.94 118.21,-21.82 122.41,-19.69 126.76,-17.39 131.11,-15.09 136.30,-14.17 141.49,-13.26 145.67,-14.33 149.85,-15.40 156.29,-17.64 162.72,-19.89 167.01,-21.05 171.29,-22.21 172.03,-22.87 172.76,-23.54 174.92,-24.21 177.09,-24.87 179.35,-24.82 181.62,-24.76 183.75,-23.98 185.88,-23.20 187.64,-21.78 189.41,-20.36 190.64,-18.45 191.86,-16.54 192.41,-14.35 192.96,-12.15 192.78,-9.89 192.59,-7.63 191.70,-5.55 190.81,-3.46 189.30,-1.77 187.78,-0.08 185.81,1.02 183.84,2.14 181.61,2.57 179.39,3.00 177.14,2.70 174.90,2.39 172.86,1.39 170.83,0.38 169.23,-1.21 167.62,-2.81 166.62,-4.84 165.61,-6.87 165.30,-9.12 164.99,-11.36 165.42,-13.59 165.84,-15.81 166.95,-17.79 168.07,-19.76 169.75,-21.28 171.44,-22.79 173.52,-23.69 175.60,-24.59 177.86,-24.77 180.12,-24.96 182.32,-24.41 184.52,-23.87 186.43,-22.65 188.34,-21.43 189.76,-19.67 191.18,-17.90 191.97,-15.77 192.75,-13.65 192.81,-11.38 192.88,-9.12 192.21,-6.95 191.55,-4.78 190.23,-2.94 188.91,-1.10 187.07,0.22 185.23,1.54 185.23,1.54 185.23,1.54 180.34,3.38 175.45,5.21 170.19,7.06 164.93,8.90 157.50,11.33 150.07,13.76 145.67,14.48 141.27,15.20 135.26,14.81 129.25,14.41 123.75,12.02 118.24,9.62 112.94,6.13 107.64,2.64 102.22,3.85 96.79,5.05 90.75,6.71 84.71,8.37 79.57,9.76 74.43,11.16 67.99,11.14 61.55,11.11 57.14,10.46 52.73,9.81 45.98,7.77 39.23,5.73 32.67,2.96 26.10,0.19 18.84,-3.15 11.59,-6.51 10.89,-2.52 10.18,1.45 9.86,2.65 9.54,3.85 8.94,4.93 8.34,6.02 7.50,6.93 6.66,7.84 5.62,8.52 4.58,9.21 3.42,9.62 2.25,10.04 1.01,10.16 -0.21,10.28 -1.44,10.11 -2.67,9.93 -3.82,9.47 -4.97,9.00 -5.97,8.28 -6.98,7.55 -7.78,6.61 -8.59,5.66 -9.14,4.55 -9.69,3.44 -9.96,2.23 -10.23,1.02 -10.21,-0.21 -10.18,-1.45 -10.18,-1.45 L -10.18,-1.45 Z"></path></g><g transform="translate(960.5 235.28231292517012) rotate(0 104.5 -4.5)" stroke="none"><path fill="#000000" d="M -4.92,-9.23 Q -4.92,-9.23 -0.63,-11.58 3.64,-13.92 7.37,-16.09 11.10,-18.26 17.10,-21.36 23.09,-24.45 28.85,-25.58 34.62,-26.70 42.46,-23.20 50.30,-19.69 55.00,-16.49 59.71,-13.30 66.14,-12.61 72.56,-11.93 79.26,-11.86 85.95,-11.79 91.17,-12.11 96.39,-12.43 101.14,-13.12 105.90,-13.81 110.67,-14.10 115.44,-14.39 121.48,-13.58 127.51,-12.77 132.28,-11.40 137.04,-10.02 142.48,-9.15 147.91,-8.27 152.78,-8.08 157.65,-7.88 162.42,-7.85 167.20,-7.81 170.59,-12.72 173.99,-17.62 181.00,-17.52 188.00,-17.42 193.18,-16.91 198.37,-16.41 203.72,-16.40 209.07,-16.40 211.37,-16.01 213.67,-15.62 215.72,-14.51 217.77,-13.41 219.37,-11.71 220.96,-10.01 221.93,-7.89 222.89,-5.77 223.13,-3.45 223.37,-1.14 222.86,1.13 222.34,3.40 221.13,5.39 219.92,7.38 218.13,8.88 216.35,10.38 214.18,11.23 212.01,12.08 209.68,12.19 207.36,12.30 205.12,11.67 202.87,11.03 200.95,9.71 199.03,8.39 197.63,6.53 196.23,4.67 195.50,2.46 194.77,0.24 194.78,-2.08 194.80,-4.41 195.55,-6.61 196.31,-8.81 197.73,-10.66 199.15,-12.51 201.09,-13.80 203.02,-15.10 205.27,-15.71 207.52,-16.32 209.85,-16.18 212.17,-16.04 214.33,-15.17 216.49,-14.29 218.26,-12.77 220.02,-11.25 221.21,-9.25 222.40,-7.25 222.89,-4.97 223.38,-2.69 223.11,-0.38 222.85,1.93 221.86,4.04 220.87,6.15 219.26,7.83 217.64,9.51 215.58,10.59 213.51,11.67 211.21,12.03 208.91,12.40 208.91,12.40 208.92,12.40 203.25,12.29 197.59,12.19 192.18,9.96 186.76,7.72 181.04,12.87 175.32,18.01 168.68,18.87 162.05,19.73 156.62,19.57 151.19,19.41 146.94,19.13 142.69,18.84 137.48,17.83 132.28,16.81 125.97,14.64 119.66,12.47 113.91,12.39 108.15,12.32 103.49,12.79 98.83,13.27 92.27,13.48 85.71,13.69 78.47,13.54 71.22,13.39 63.41,12.37 55.59,11.36 51.53,9.81 47.47,8.26 43.52,5.82 39.58,3.39 35.28,0.03 30.98,-3.32 26.25,-1.38 21.52,0.55 17.56,2.64 13.60,4.72 9.26,6.98 4.92,9.23 3.74,9.68 2.57,10.14 1.32,10.30 0.06,10.46 -1.18,10.32 -2.43,10.17 -3.61,9.73 -4.80,9.29 -5.84,8.58 -6.88,7.87 -7.73,6.93 -8.57,6.00 -9.16,4.88 -9.76,3.77 -10.06,2.55 -10.37,1.32 -10.38,0.06 -10.39,-1.19 -10.10,-2.41 -9.80,-3.64 -9.22,-4.76 -8.65,-5.88 -7.82,-6.83 -6.99,-7.78 -5.95,-8.51 -4.92,-9.23 -4.92,-9.23 L -4.92,-9.23 Z"></path></g><g transform="translate(963.5 308.2823129251701) rotate(0 99 -10)" stroke="none"><path fill="#000000" d="M -7.96,-6.46 Q -7.96,-6.46 -4.14,-11.05 -0.33,-15.64 4.80,-19.68 9.94,-23.72 18.21,-26.14 26.49,-28.57 31.15,-29.63 35.82,-30.69 40.12,-31.27 44.41,-31.84 51.71,-31.31 59.00,-30.77 62.86,-28.90 66.72,-27.04 72.81,-22.99 78.90,-18.95 83.91,-16.99 88.93,-15.02 94.12,-14.43 99.32,-13.84 103.67,-15.58 108.02,-17.32 113.29,-18.94 118.56,-20.56 123.21,-21.09 127.86,-21.62 134.47,-20.67 141.07,-19.72 145.54,-17.28 150.00,-14.84 155.12,-13.54 160.24,-12.25 164.45,-13.41 168.66,-14.57 173.06,-16.67 177.46,-18.78 183.18,-20.55 188.90,-22.33 193.20,-22.74 197.51,-23.16 199.78,-22.86 202.05,-22.57 204.12,-21.57 206.18,-20.56 207.81,-18.96 209.44,-17.35 210.48,-15.30 211.51,-13.25 211.84,-10.98 212.16,-8.71 211.75,-6.46 211.33,-4.21 210.22,-2.20 209.10,-0.20 207.41,1.34 205.71,2.88 203.61,3.80 201.51,4.72 199.23,4.92 196.95,5.13 194.72,4.59 192.49,4.05 190.55,2.83 188.61,1.61 187.16,-0.16 185.71,-1.93 184.90,-4.08 184.10,-6.22 184.02,-8.52 183.94,-10.81 184.60,-13.00 185.26,-15.20 186.58,-17.07 187.90,-18.94 189.76,-20.29 191.61,-21.64 193.79,-22.33 195.98,-23.02 198.27,-22.98 200.57,-22.93 202.72,-22.15 204.88,-21.38 206.68,-19.96 208.47,-18.53 209.72,-16.61 210.97,-14.69 211.54,-12.47 212.11,-10.25 211.94,-7.96 211.77,-5.67 210.88,-3.56 209.99,-1.45 208.47,0.26 206.95,1.98 204.96,3.12 202.98,4.26 200.73,4.71 198.48,5.16 198.48,5.16 198.48,5.16 194.57,5.55 190.65,5.94 185.76,8.30 180.87,10.66 176.43,12.62 171.98,14.57 165.10,15.21 158.21,15.85 152.67,14.91 147.14,13.97 141.51,11.61 135.89,9.26 131.37,7.45 126.85,5.65 122.15,6.30 117.44,6.95 112.62,8.96 107.80,10.97 102.32,11.01 96.84,11.06 89.68,9.88 82.51,8.71 78.29,7.30 74.06,5.90 69.09,2.60 64.13,-0.68 59.83,-4.02 55.53,-7.36 50.89,-9.25 46.26,-11.14 39.04,-10.48 31.81,-9.82 23.54,-6.29 15.28,-2.75 11.62,1.85 7.96,6.46 7.07,7.32 6.18,8.18 5.11,8.80 4.04,9.42 2.85,9.77 1.66,10.12 0.43,10.17 -0.80,10.22 -2.01,9.98 -3.22,9.73 -4.34,9.20 -5.46,8.68 -6.42,7.90 -7.38,7.12 -8.12,6.13 -8.87,5.14 -9.35,4.01 -9.84,2.87 -10.04,1.65 -10.24,0.43 -10.15,-0.79 -10.05,-2.02 -9.66,-3.20 -9.27,-4.37 -8.61,-5.42 -7.95,-6.46 -7.96,-6.46 L -7.96,-6.46 Z"></path></g><g transform="translate(959.5 369.2823129251701) rotate(0 106 -2)" stroke="none"><path fill="#000000" d="M -1.99,-9.99 Q -1.99,-9.99 3.76,-11.09 9.52,-12.19 14.76,-13.07 20.00,-13.95 24.53,-14.90 29.06,-15.86 34.53,-16.60 40.01,-17.35 44.88,-18.21 49.75,-19.07 55.58,-19.49 61.41,-19.92 65.85,-20.19 70.29,-20.47 75.42,-20.83 80.54,-21.20 84.75,-20.11 88.96,-19.02 94.76,-15.39 100.57,-11.76 107.54,-9.96 114.51,-8.17 119.44,-7.74 124.37,-7.30 129.71,-7.03 135.04,-6.75 139.28,-7.41 143.51,-8.06 148.41,-11.14 153.30,-14.22 159.36,-14.55 165.42,-14.87 169.89,-13.85 174.37,-12.83 178.84,-11.68 183.32,-10.52 190.68,-9.22 198.04,-7.91 202.77,-7.60 207.50,-7.29 203.52,-3.91 199.54,-0.52 200.58,-2.39 201.63,-4.26 203.22,-5.70 204.81,-7.14 206.78,-7.99 208.75,-8.85 210.89,-9.03 213.02,-9.21 215.11,-8.70 217.19,-8.19 219.00,-7.04 220.81,-5.89 222.16,-4.23 223.51,-2.56 224.26,-0.55 225.00,1.45 225.07,3.59 225.14,5.74 224.51,7.79 223.89,9.84 222.65,11.59 221.40,13.33 219.66,14.59 217.93,15.85 215.88,16.49 213.83,17.12 211.69,17.07 209.54,17.02 207.53,16.29 205.51,15.56 203.84,14.22 202.16,12.88 201.00,11.08 199.84,9.28 199.31,7.20 198.79,5.12 198.95,2.98 199.12,0.84 199.96,-1.12 200.80,-3.10 202.23,-4.70 203.65,-6.30 205.52,-7.36 207.38,-8.42 209.49,-8.83 211.59,-9.25 213.72,-8.96 215.84,-8.68 217.77,-7.73 219.69,-6.79 221.21,-5.28 222.73,-3.77 223.69,-1.85 224.65,0.06 224.95,2.18 225.25,4.31 224.85,6.42 224.45,8.52 224.45,8.52 224.45,8.52 212.67,13.48 200.88,18.45 193.09,17.37 185.29,16.29 179.49,15.25 173.69,14.20 167.22,11.87 160.75,9.54 153.87,11.99 147.00,14.44 140.77,15.39 134.53,16.35 128.77,16.35 123.00,16.34 116.69,16.13 110.37,15.91 104.83,14.89 99.29,13.87 92.35,10.35 85.40,6.82 80.58,3.96 75.76,1.11 69.31,1.06 62.85,1.00 58.05,1.31 53.25,1.61 47.97,2.47 42.70,3.34 37.83,3.93 32.96,4.53 28.04,5.39 23.12,6.24 18.30,6.92 13.47,7.59 7.73,8.79 1.99,9.99 0.77,10.08 -0.45,10.17 -1.66,9.97 -2.87,9.77 -4.00,9.28 -5.12,8.80 -6.10,8.06 -7.08,7.31 -7.85,6.36 -8.63,5.41 -9.15,4.29 -9.67,3.18 -9.91,1.98 -10.15,0.77 -10.10,-0.44 -10.04,-1.67 -9.70,-2.85 -9.35,-4.03 -8.73,-5.09 -8.11,-6.15 -7.26,-7.03 -6.41,-7.91 -5.37,-8.57 -4.32,-9.22 -3.16,-9.60 -1.99,-9.99 -1.99,-9.99 L -1.99,-9.99 Z"></path></g><g stroke-linecap="round"><g transform="translate(436.5 156.87525128508992) rotate(0 236.5 0.42486010718275224)"><path d="M0 0 C78.83 0.14, 394.17 0.71, 473 0.85 M0 0 C78.83 0.14, 394.17 0.71, 473 0.85" stroke="#000000" stroke-width="4" fill="none"></path></g><g transform="translate(436.5 156.87525128508992) rotate(0 236.5 0.42486010718275224)"><path d="M444.79 11.06 C454.13 7.68, 463.47 4.3, 473 0.85 M444.79 11.06 C453.2 8.02, 461.61 4.97, 473 0.85" stroke="#000000" stroke-width="4" fill="none"></path></g><g transform="translate(436.5 156.87525128508992) rotate(0 236.5 0.42486010718275224)"><path d="M444.83 -9.46 C454.16 -6.05, 463.48 -2.63, 473 0.85 M444.83 -9.46 C453.23 -6.39, 461.63 -3.31, 473 0.85" stroke="#000000" stroke-width="4" fill="none"></path></g></g><g stroke-linecap="round" transform="translate(582.5 57.28231292517012) rotate(0 103 32)"><path d="M0 0 L206 0 L206 64 L0 64" stroke="none" stroke-width="0" fill="#fa5252"></path><path d="M0 0 C46.9 0, 93.79 0, 206 0 M0 0 C67.69 0, 135.38 0, 206 0 M206 0 C206 16.71, 206 33.42, 206 64 M206 0 C206 22.17, 206 44.33, 206 64 M206 64 C156.67 64, 107.33 64, 0 64 M206 64 C151.44 64, 96.88 64, 0 64 M0 64 C0 44.05, 0 24.1, 0 0 M0 64 C0 46.97, 0 29.94, 0 0" stroke="#000000" stroke-width="4" fill="none"></path></g><g transform="translate(638.5 67.28231292517012) rotate(0 50.5 22.5)"><text x="0" y="32" font-family="Virgil, Segoe UI Emoji" font-size="36px" fill="#000000" text-anchor="start" style="white-space: pre;" direction="ltr">READ</text></g><g stroke-linecap="round" transform="translate(112.5 73.28231292517012) rotate(0 156.5 98.5)"><path d="M0 0 L313 0 L313 197 L0 197" stroke="none" stroke-width="0" fill="#40c057"></path><path d="M0 0 C78.39 0, 156.78 0, 313 0 M0 0 C67.46 0, 134.93 0, 313 0 M313 0 C313 64.92, 313 129.85, 313 197 M313 0 C313 69.86, 313 139.71, 313 197 M313 197 C232.87 197, 152.74 197, 0 197 M313 197 C228.72 197, 144.44 197, 0 197 M0 197 C0 137.06, 0 77.12, 0 0 M0 197 C0 149.85, 0 102.71, 0 0" stroke="#000000" stroke-width="4" fill="none"></path></g><g stroke-linecap="round"><g transform="translate(267.5 286.2823129251701) rotate(0 0.5 52.5)"><path d="M0 0 C0.17 17.5, 0.83 87.5, 1 105 M0 0 C0.17 17.5, 0.83 87.5, 1 105" stroke="#000000" stroke-width="4" fill="none"></path></g><g transform="translate(267.5 286.2823129251701) rotate(0 0.5 52.5)"><path d="M-9.53 76.91 C-6.16 85.89, -2.79 94.88, 1 105 M-9.53 76.91 C-5.59 87.42, -1.65 97.93, 1 105" stroke="#000000" stroke-width="4" fill="none"></path></g><g transform="translate(267.5 286.2823129251701) rotate(0 0.5 52.5)"><path d="M10.99 76.71 C7.8 85.76, 4.6 94.81, 1 105 M10.99 76.71 C7.25 87.3, 3.51 97.88, 1 105" stroke="#000000" stroke-width="4" fill="none"></path></g></g><g stroke-linecap="round" transform="translate(383.5 304.2823129251701) rotate(0 103 32)"><path d="M0 0 L206 0 L206 64 L0 64" stroke="none" stroke-width="0" fill="#fa5252"></path><path d="M0 0 C76.71 0, 153.41 0, 206 0 M0 0 C55.3 0, 110.6 0, 206 0 M206 0 C206 25.31, 206 50.62, 206 64 M206 0 C206 14.9, 206 29.81, 206 64 M206 64 C144 64, 81.99 64, 0 64 M206 64 C163.19 64, 120.38 64, 0 64 M0 64 C0 41.48, 0 18.96, 0 0 M0 64 C0 47.58, 0 31.16, 0 0" stroke="#000000" stroke-width="4" fill="none"></path></g><g transform="translate(429.5 316.2823129251701) rotate(0 60.5 22.5)"><text x="0" y="32" font-family="Virgil, Segoe UI Emoji" font-size="36px" fill="#000000" text-anchor="start" style="white-space: pre;" direction="ltr">PRINT</text></g><g transform="translate(231.5 143.28231292517012) rotate(0 32.5 22.5)"><text x="0" y="32" font-family="Virgil, Segoe UI Emoji" font-size="36px" fill="#000000" text-anchor="start" style="white-space: pre;" direction="ltr">CLI</text></g><g transform="translate(1008.5 76.28231292517012) rotate(0 49.5 22.5)"><text x="0" y="32" font-family="Virgil, Segoe UI Emoji" font-size="36px" fill="#000000" text-anchor="start" style="white-space: pre;" direction="ltr">LOGS</text></g></svg>