<svg version="1.1" xmlns="http://www.w3.org/2000/svg" viewBox="0 0 1317 668.5646258503401" width="1317" height="668.5646258503401">
  <!-- svg-source:excalidraw -->
  
  <defs>
    <style>
      @font-face {
        font-family: "Virgil";
        src: url("https://excalidraw.com/Virgil.woff2");
      }
      @font-face {
        font-family: "Cascadia";
        src: url("https://excalidraw.com/Cascadia.woff2");
      }
    </style>
  </defs>
  <rect x="0" y="0" width="1317" height="668.5646258503401" fill="#ffffff"></rect><g stroke-linecap="round" transform="translate(10 10) rotate(0 648.5 324.28231292517006)"><path d="M0 0 C0 0, 0 0, 0 0 M0 0 C0 0, 0 0, 0 0 M0.03 6.91 C1.44 4.1, 4.36 1.85, 5.68 1.15 M-0.36 6.03 C1.33 4.99, 2.58 2.99, 4.86 0.39 M-0.4 12.34 C2.64 7.35, 7.48 4.47, 9.04 0.51 M-0.6 12.3 C3.47 7.45, 6.52 4.84, 10.91 0.18 M-1.51 18.64 C2.97 14.12, 8.97 9.9, 14.88 -1.56 M-1.12 18.08 C4.09 14.18, 7.15 9.12, 15.51 -0.3 M-1.3 24.18 C8.51 13.87, 16.52 5.97, 21.36 -1.17 M0 23.41 C7.15 17.87, 12.48 10.05, 20.82 -0.65 M0.45 30.83 C8.12 23.87, 14.51 12.7, 25.96 -0.89 M0.11 30.91 C4.14 24.39, 9.58 18.99, 25.59 0.8 M-1.87 37.83 C10.29 21.95, 23.3 10.01, 30.12 1.45 M-0.28 36.7 C8.68 24.79, 18.08 14.33, 31.24 -1.06 M-1.44 40.8 C11.56 29.84, 26.2 12.56, 35.83 1.55 M-0.31 42.95 C12.2 30.59, 21.7 17.5, 36.99 1.07 M1.3 48.66 C12.73 33.8, 27.93 19.27, 43.29 -0.6 M-0.4 49.24 C12.46 33.74, 24.92 21.01, 42.47 -0.92 M-0.43 55.1 C17.53 36.03, 32.8 15.94, 47.88 -0.09 M-0.33 55.47 C11.36 40.94, 23.15 28.32, 46.8 0.6 M1.31 59.21 C16.59 43.64, 31.58 25.83, 53.79 -0.41 M-0.12 61.06 C12.29 47.15, 24.66 33.65, 53.21 -0.87 M-1.9 68.99 C14.98 50.41, 28.22 33.68, 59.03 -0.71 M-0.1 67.77 C20.49 43.18, 39.58 18.97, 58.09 -0.77 M1.46 74.21 C13.94 54.29, 31.71 38.23, 65.04 -1.15 M-0.56 73.18 C21.31 47.8, 42.05 24.23, 63.63 0.67 M1.27 77.44 C15.87 58.39, 34.13 42.12, 69.72 1.8 M-0.32 79.11 C18.71 58.03, 38.24 35.55, 68.9 -0.42 M0.59 83.39 C22.14 60.23, 42.69 39.83, 73.02 -1.98 M0.15 85.43 C14.33 67.92, 31.17 49.95, 74.42 0.59 M-1.22 89.66 C29.17 55.89, 56.69 22.34, 77.95 0.48 M0.85 92.33 C24.06 65.73, 45.28 38.34, 79.27 0.03 M-1.62 96.16 C24.18 68.58, 50.66 37.76, 84.21 -0.12 M-0.81 98.12 C27.16 66.42, 53.23 33.94, 85.71 0.04 M-0.51 104.05 C35.18 63.95, 69.06 23.81, 89.22 1.36 M-0.63 103.74 C36.07 62.58, 71.74 22.33, 90.23 -0.26 M0.05 108.68 C22.73 85.8, 44.32 60.88, 97.66 -0.81 M0.72 110.08 C32.76 71.01, 64.18 33.39, 96.16 -0.6 M0.81 115.01 C36.67 75.44, 70.38 33.16, 102.58 1.44 M-0.32 114.94 C21.74 90.31, 45.26 64.34, 100.77 -0.39 M-1.65 122.32 C37.08 76.27, 79.46 30.92, 106.93 0.68 M0.89 122.16 C41.34 75.36, 82.17 27.06, 105.87 -0.64 M-1.99 127.64 C37.99 81.13, 79.56 36.32, 112.61 -1.33 M-0.92 128.55 C35.94 84.98, 73.23 42.54, 110.89 -0.68 M-1.76 134.67 C28.85 104.69, 55.53 73.51, 117.44 1.8 M-0.5 133.24 C43.73 83.56, 87.45 33.74, 116.81 0.61 M0.89 140.75 C45.39 90.65, 90.42 38.52, 123.42 -2.01 M-0.72 140.17 C37.82 95.7, 74.39 53.47, 122.56 0.32 M2.2 146.27 C41.02 95.28, 84.49 49.78, 127.14 -0.3 M0.34 145.93 C35.83 104.81, 70.49 63.24, 126.37 -0.16 M-0.19 153.29 C45.31 100.91, 91.14 50.08, 130.84 1.16 M-0.42 152 C32.56 114.13, 64.69 75.26, 132.71 0.72 M-0.39 159.35 C49.41 102.92, 99.15 45.78, 136.63 1.61 M-0.44 158.45 C36.28 115.9, 73.79 74.03, 138.36 1.16 M-1.54 163.9 C52.75 106.55, 102.56 46.23, 143.41 1.26 M0.22 164.55 C43.36 114.91, 86.41 64.79, 142.46 0.67 M-0.65 169.34 C35.11 128.57, 71.35 84.83, 149.11 0.6 M-0.76 170.38 C55.45 108.3, 110.69 44.61, 147.32 0.59 M1.94 176.29 C46.05 126.6, 90.24 74.77, 154.42 0.25 M1.09 176.84 C51.83 118.48, 101.16 60.39, 153.43 -0.89 M-0.29 181.74 C43.23 135.43, 84.92 87.21, 157.8 0.76 M0.18 182.41 C31.39 144.55, 64.95 108.08, 158.99 0.82 M-1.83 187.96 C46.61 137.27, 91.68 84.04, 165.83 -1.1 M0.17 189.81 C34.37 150.78, 69.57 110.56, 163.79 -0.13 M1.1 193.46 C59.14 129.04, 115.33 61.81, 168.5 0.82 M0.45 194.28 C43.67 147.14, 87.3 96.77, 169.93 -0.41 M-0.53 202.4 C57.02 138, 109.61 76.36, 175.84 -1.37 M0.34 200.74 C63.03 127.28, 126.97 54.42, 174.32 0.57 M0.44 205.64 C61.29 134.11, 124.38 61.83, 180.45 -0.37 M0.66 206.38 C71.62 125.28, 143.71 44.44, 180.61 0.56 M-0.09 212.5 C47.22 163.69, 89.86 110.42, 187.09 -0.08 M-0.39 213.34 C42.73 162.64, 87.52 112.2, 185.66 0.49 M-1.48 219.28 C42.38 171.77, 81.98 126.26, 191.87 0.67 M-0.84 219.6 C67.63 139.91, 136.77 59.81, 191.04 -0.39 M-0.29 224.66 C61.45 151.65, 126.79 77.39, 195.65 0.92 M0.89 225.96 C79.83 134.26, 158.11 44.32, 196.16 -0.45 M0.48 230.86 C42.6 182.3, 83.46 135.01, 201.63 1.16 M0.05 231.66 C55.37 165.63, 111.05 102, 201.61 -0.13 M-0.55 238.71 C65.04 162.66, 130.73 86.83, 207.73 -0.69 M-0.08 238.06 C49.82 180.37, 99.66 123.04, 207.22 0.38 M-1.13 244.28 C52.5 184.59, 105.14 122.3, 213.29 0.03 M-0.54 243.89 C71.9 160.34, 143.79 78.6, 212.27 0.05 M0.69 251.14 C82.98 153.82, 168.12 57.54, 217.42 -0.79 M0.23 250.13 C61.58 177.77, 123.3 107.69, 217.98 0.29 M0.95 254.83 C46.6 201.17, 94.43 146.58, 222.23 -0.93 M0.66 255.95 C71 174.22, 141.71 92.88, 221.97 -0.11 M-0.88 262.01 C85.89 165.23, 173.01 67.17, 228.54 0.88 M0.46 262.56 C63.83 189.99, 127.06 117.84, 227.7 -0.56 M1.03 268.13 C46.35 213.19, 94.73 159.59, 233.85 1.05 M0 267.4 C61.79 195.04, 123.53 124.84, 233.37 0.61 M0.95 274.68 C83.17 181.21, 165.11 87.51, 238.36 0.82 M-0.12 274.12 C71.28 191.99, 141.58 110.64, 238.23 0.49 M0.73 280.43 C70.46 197.44, 143.92 113.14, 243.21 0.9 M-0.73 280.33 C48.72 223.56, 97.49 165.9, 244.04 0.35 M0.28 286.49 C60.83 215.84, 120.07 146.68, 249.75 0.57 M-0.07 286.32 C60.49 216.4, 121.24 146.05, 249.38 -0.24 M-0.52 292.9 C101.47 176.14, 201.91 59.41, 254.7 0.23 M-0.53 293.04 C59.7 223.24, 119.53 154.3, 254.03 0.03 M0.49 298.65 C56.12 231.3, 114.89 163.23, 258.5 -0.62 M0.38 298.25 C92.06 193.65, 182.22 90.66, 259.79 0.08 M-0.7 304.57 C101.77 189.3, 200.56 73.51, 265.54 0.36 M0.24 304.3 C64.03 231.63, 126.73 158.42, 264.76 0.04 M-0.32 310.72 C90.39 207.18, 180.21 104.16, 269.1 -0.14 M-0.47 311.71 C70.21 231.16, 141.18 150.67, 269.96 -0.22 M1.08 317.76 C95.16 208.13, 187.79 100.02, 274.79 -0.81 M-0.33 316.62 C104.75 197.67, 207.11 79.77, 276.07 -0.24 M-0.57 323.3 C64.36 251.8, 128 177.98, 280.82 0.44 M-0.35 323.06 C102.88 204.99, 205.17 87.3, 280.83 -0.07 M1.21 328.73 C97.7 212.35, 199.66 97.36, 286.01 -0.98 M0.77 328.4 C105.99 208.49, 210.76 87.46, 286.02 0.33 M-0.41 334.91 C69.05 253.98, 138.06 174.3, 291.82 -0.64 M0.14 334.91 C79.15 244.68, 157.32 154.78, 291.19 0.33 M0.7 342.44 C91.28 236.09, 183.09 129.8, 297.53 -1.15 M-0.49 341.86 C68.69 263.52, 136.99 184.24, 296.66 -0.07 M-0.14 346.53 C96.99 236.65, 192.86 127.23, 302.26 -0.61 M-0.17 347.03 C90.67 241.13, 182.94 135.34, 302.37 0.21 M0.19 353.9 C85.44 254.46, 171.43 155.79, 308.24 -0.36 M-0.47 353.36 C108.13 230.4, 215.25 107.63, 308.03 -0.52 M0.23 358.94 C96.54 249.22, 193.88 137.69, 312.97 0.51 M0.68 359.78 C75.46 275.54, 149.06 191.1, 312.79 -0.25 M0.86 365.83 C114.56 234.53, 228.89 103, 318.34 -0.45 M0.29 366.17 C122.29 227.27, 243.68 88.02, 318.22 -0.16 M-0.56 372.65 C80.73 278.57, 162.71 185.48, 322.74 -0.22 M0.02 371.79 C111.65 241.04, 224.95 111.72, 323.26 0.25 M0.74 378.52 C67.03 300.11, 134.63 222.35, 328.22 0.38 M-0.14 377.73 C120.03 237.71, 241.75 98.18, 329.15 -0.22 M0.08 384.38 C95.59 274.92, 189.66 167.57, 334.38 0.77 M0.13 384.32 C119.38 246.58, 238.14 109.28, 333.64 0.3 M0.38 390.35 C108.81 266, 216.43 141.89, 339.13 -0.29 M0.51 389.73 C76.01 301.78, 152.19 214.1, 339.88 -0.05 M0.53 395.64 C119.98 259.87, 239.12 122.39, 343.9 0.72 M0.18 395.94 C102.61 277.46, 206.01 158.34, 344.17 -0.26 M-0.66 402.42 C119.7 263.31, 240.4 124.64, 348.73 0.71 M0.15 402.39 C83.83 306.87, 168.18 209.91, 349.85 0.62 M0.06 408.67 C94.65 296.39, 191.65 185.91, 354.45 -0.27 M0.2 408.25 C90.01 305.91, 177.78 204.35, 355.11 -0.11 M-0.21 414.77 C138.98 254.84, 278.52 95.3, 360.84 0.27 M0.27 414.39 C137.22 255.64, 276.59 96.4, 360.29 0.68 M-0.11 420.85 C109.43 295.35, 218.69 169.84, 365.75 -0.11 M-0.65 421.28 C144.61 254.43, 288.14 89.27, 365.49 -0.03 M0.17 426.89 C107.58 301.24, 214.92 179.32, 371.15 0.72 M-0.01 426.97 C76.07 341.44, 151.5 255.34, 370.62 0.23 M0.22 433.71 C134.23 278.47, 268.86 123.22, 376.54 -0.32 M-0.25 433.34 C132.16 280.1, 265.69 126.6, 376.77 -0.1 M0.16 438.71 C132.76 286.71, 264.11 135.26, 381.81 -0.37 M-0.13 438.95 C118.16 302.49, 237.94 164.7, 381.53 0.28 M0.29 445.42 C148.56 273.23, 297.09 103, 386.99 -0.44 M-0.22 445.08 C107.83 319.03, 216.17 194.45, 386.77 -0.07 M0.21 451.29 C81.15 359.76, 161.74 267.19, 391.97 0.94 M-0.58 451.78 C122.82 308.12, 246.52 166.66, 392.3 -0.01 M0.21 456.59 C82.23 363.98, 161.59 270.15, 397.85 -0.44 M0.23 456.92 C135.69 299.51, 272.57 142.22, 397.32 0.2 M0.16 463.01 C141.47 300.49, 284.65 136.21, 403.42 -0.19 M0.09 463.78 C112.75 333.98, 226.33 203.65, 402.81 0.19 M-0.5 468.6 C100.1 354.87, 201.89 237.93, 408.12 0.13 M0.09 469.37 C98.21 356.49, 197.4 242.06, 408.23 -0.46 M-0.72 474.92 C94.81 364.54, 191.62 253.14, 413.34 0.95 M0.18 475.81 C107.92 350.27, 217.26 225.56, 413.12 -0.17 M0.46 481.99 C99.44 363.94, 201.21 247.62, 418.98 -0.31 M-0.48 481.82 C130.65 332.2, 259.17 184.16, 418.54 -0.09 M-0.3 486.88 C142.21 326.21, 283.17 164.04, 423.13 0.29 M0.23 487.91 C165.48 296.24, 330.93 106.04, 423.9 0.37 M0.33 494.21 C135.04 339.17, 270.18 184.65, 429.84 0.25 M-0.4 493.88 C166.88 300.95, 334.46 109.16, 429.23 -0.43 M0.2 499.17 C125.82 355.99, 251.23 211.75, 434.41 0.13 M0.37 499.61 C159.07 317.45, 316.32 135.84, 434.4 -0.23 M-0.57 506.58 C126.36 363.22, 251.91 218.76, 440.72 0.21 M-0.35 506.34 C161.29 321.92, 322.48 136.29, 440.52 -0.11 M-0.53 512.37 C173.03 315.35, 346 115.98, 444.99 0.36 M0.06 512.7 C162.5 325.33, 324.12 139.15, 445.26 0.1 M-0.28 518.84 C172.03 322.28, 343.54 125.8, 451.45 -0.06 M0.26 517.76 C110.25 388.67, 221.29 261.79, 450.6 -0.66 M-0.38 525.22 C121.19 384.35, 241.76 247.03, 456.11 -0.74 M-0.45 524.62 C158.67 343.03, 317.06 160.04, 455.73 -0.07 M0.21 530.71 C146.93 362.55, 292.83 194.13, 460.87 -0.56 M0.59 530.38 C122.72 390.74, 243.24 252.36, 461.65 -0.5 M-0.22 536.7 C91.54 428.22, 185.48 320.29, 466.82 0.7 M0.29 536.59 C165.37 347.3, 329.16 159.38, 466.45 0.34 M0.22 543.46 C101.79 427.09, 202.42 309.88, 471.78 -0.21 M-0.25 543.3 C173.07 341.92, 347.92 140.66, 471.62 0.59 M-0.45 548.61 C106.64 423.33, 213.58 300.1, 476.39 0.52 M-0.01 548.55 C182.06 338.87, 363.89 130.13, 476.64 -0.27 M-0.31 554.49 C142.78 390.07, 285.69 225.53, 481.56 1.06 M-0.2 554.69 C174.85 356.13, 348.95 155.89, 481.98 0.52 M0.75 560.75 C106.65 436.18, 215.06 312.01, 488.29 0.18 M0.36 560.38 C160.24 376.12, 319.63 193.02, 487.74 -0.22 M-0.83 567.45 C185.5 357.29, 368.31 147.49, 493.43 -0.48 M-0.17 567.47 C170.64 373.24, 340.25 178.24, 492.64 0.52 M-0.43 574.06 C108.08 452.28, 215.91 328.02, 498.21 -0.51 M-0.38 573.8 C122.87 429.02, 247.3 285.92, 498.15 -0.5 M0.12 578.81 C178.17 373.42, 359.58 165.29, 503.9 -0.1 M-0.21 579.51 C130.9 428.81, 262.14 277.53, 503.39 0.2 M-0.46 585.2 C141.33 419.58, 284.17 253.72, 509.24 -0.92 M-0.41 585.77 C147.61 416.61, 295.51 246.69, 509.3 -0.41 M0.18 590.64 C190.04 372.13, 379.82 152.79, 514.06 0.91 M0.21 591.19 C193.81 372.45, 385.57 152.23, 513.56 0.26 M0.48 598.29 C127.98 451.43, 256.43 303.51, 519.9 -0.45 M-0.32 597.45 C191.88 378.01, 382.33 159.15, 519.57 -0.34 M-0.25 604.14 C114.62 474.72, 227.94 346.47, 524.04 0.85 M-0.43 604.15 C197.95 378.27, 395.36 152.2, 524.92 0.53 M0.25 609.88 C202.37 377.42, 405.41 143.59, 529.71 -0.92 M-0.02 609.91 C141.76 445.85, 283.98 282.42, 530.38 -0.57 M0.62 615.86 C161.27 426.06, 325.27 238.6, 535.35 0 M-0.29 616.28 C150.89 438.59, 303.96 262.59, 534.81 0.33 M-0.27 621.7 C167.8 427.95, 338.05 233.38, 541.6 -0.93 M0.16 621.35 C197.7 396.09, 395.83 168.56, 540.91 -0.07 M-0.38 627.77 C189.89 409.16, 379.85 189.53, 545.36 -0.17 M-0.13 628.24 C190.66 408.33, 381.39 188.5, 546.17 0.48 M-0.24 634.23 C170.75 440.22, 339.34 246.44, 551.54 0.07 M0.02 634.64 C169.28 438.1, 338 244.23, 551.76 -0.12 M0.06 640.3 C140.77 480.03, 282.41 317.12, 556 0.6 M-0.21 640.02 C187.94 422.83, 377.11 205.84, 556.72 -0.28 M-0.24 646.06 C212.89 398.99, 426.54 152.85, 562.08 -0.56 M0.14 646.67 C174.81 446.73, 350.28 245.05, 562.1 -0.67 M2.6 649.97 C126.84 503.54, 252.75 358.95, 566.66 0.57 M2.12 649.88 C145.7 484.79, 289.09 319.99, 567.41 -0.12 M6.6 650.95 C120.12 518.33, 236.09 387.33, 571.99 0.12 M7.13 649.81 C167.29 468.44, 326.22 285.06, 572.5 0.02 M12.89 651.18 C160.71 482.43, 307.24 313.1, 578.11 -0.04 M12.48 650.84 C135.68 510.21, 256.66 370.84, 577.95 -0.08 M18.08 650.32 C239.36 396.31, 459.51 142.49, 582.8 1 M17.49 650.41 C183.14 461.93, 347.43 273.8, 583.08 0.15 M22.03 650.23 C176.99 476.24, 329.61 300.76, 588.54 0.2 M22.74 650.73 C233.27 405.55, 446.66 160.4, 588.05 0.29 M28.47 650.8 C141.94 517.05, 256.06 385.94, 592.64 1.07 M28.39 649.97 C193.18 460.39, 357.59 270.9, 593.3 0.56 M33.53 649.83 C231.79 424.83, 428.74 196.75, 599.17 -0.1 M33.52 650.74 C154.19 508.03, 276.74 366.94, 598.63 0.14 M38.31 650.86 C185.75 484.6, 329.71 318.37, 604.24 0.01 M39.06 649.73 C159.64 511.2, 280.39 372.61, 604.08 0.09 M43.74 650.33 C210.99 456.15, 380.22 262.33, 610.2 0.45 M43.91 650.2 C176.84 494.72, 312.61 339.19, 609.77 0.15 M50.38 650.15 C169.05 514.17, 287.05 378.2, 614.04 0.69 M49.53 650.02 C196.7 480.94, 344.08 311.07, 614.35 0.08 M54.85 649.67 C233.85 445.17, 411.5 238.97, 620.07 0.44 M54.39 650.15 C212.58 473.18, 369.1 293.43, 620.39 -0.33 M60.85 650.29 C214.19 474.44, 368.13 298.15, 625.08 -0.4 M60.21 649.89 C183.9 509.38, 307.26 367.32, 624.87 0.03 M66.03 650.59 C233.27 456.87, 400.78 264.34, 631.02 -0.35 M65.61 650.55 C281.35 400.36, 498.74 150.16, 630.97 -0.4 M71.33 649.32 C239.87 454.46, 410.37 258.54, 636.6 0.41 M70.72 649.9 C266.27 428.64, 460.25 206.51, 636.16 0.3 M75.89 650.19 C265.61 433.37, 455.11 214.93, 641.91 -0.17 M75.65 650.65 C273.89 421.56, 472.03 194.32, 641.58 -0.48 M81.61 650.45 C251.37 450.3, 422.83 253.88, 646.47 0.36 M81.87 650.1 C230.87 476.4, 381.79 302.67, 646.55 0.2 M86.43 650.39 C209.71 505.18, 336.3 360.24, 652.21 -0.87 M86.75 650.22 C300.6 403, 515.75 155.65, 652.32 -0.3 M92.11 650.06 C279.43 435.22, 468.56 218.38, 656.75 0.71 M92.07 649.66 C262.41 451.15, 435.49 252.36, 657.38 -0.1 M97.49 650.68 C297.69 419.7, 495.83 191.33, 662.79 -0.71 M96.96 649.91 C218.37 509.61, 340.45 369.61, 662.85 -0.04 M103.07 649.75 C326.4 395.28, 547.94 140.94, 668.14 -0.53 M102.5 649.66 C300.57 425.35, 496.94 200.31, 667.75 0.11 M107.5 650.52 C229.18 515.64, 348.89 377.46, 673.55 0.03 M107.74 650.11 C230.87 507, 354.79 364.54, 673.63 0 M113.73 649.08 C302.33 434.31, 491 217.56, 679.14 0.27 M113.55 650.26 C315.04 421.62, 514.33 192.26, 678.18 0.04 M119.11 650.2 C281.32 463.57, 444.39 275.46, 684.2 -0.15 M118.7 650.5 C280.26 468.57, 439.97 285.13, 683.92 -0.18 M124.09 650.38 C322.81 418.53, 523.57 188.29, 688.45 0.3 M123.76 650.3 C273.47 474.03, 425.01 300.17, 689.38 0.2 M128.78 649.96 C341.5 407.5, 552.34 164.36, 695.05 0.06 M128.89 650.47 C308.54 440.6, 489.86 231.51, 694.57 -0.66 M133.52 650.08 C308.17 452.8, 479.73 255.16, 699.01 0.77 M134.41 650.28 C310.37 450.31, 485.1 249.59, 699.44 -0.4 M140.38 650.84 C278.09 489.52, 417.5 329.31, 703.98 -0.11 M139.53 650.3 C353.32 403.61, 567.04 157.36, 704.58 0.33 M144.05 650.46 C361.19 405.42, 574.83 158.21, 710.75 -0.36 M144.42 650.84 C296.45 475.57, 449.12 300.29, 709.85 0.18 M150.01 650.68 C371.47 392.34, 594.77 136.82, 714.64 0.72 M150.43 650 C332.88 437.3, 516.91 225.72, 714.9 0.62 M155.78 651.06 C283.68 502.37, 410.74 356.26, 721.42 0.49 M155.75 650.18 C282.37 505.91, 407.15 362.36, 721.1 -0.05 M161.15 649.68 C326.67 456.59, 493.62 265.08, 725.34 0.14 M161.21 650.47 C363.17 414.25, 566.51 179.21, 725.69 0.59 M165.41 650.19 C297.81 495.52, 430.96 341.12, 732.17 0.47 M165.96 650.81 C286.07 513.62, 405.87 375.55, 731.48 -0.13 M171.13 649.66 C357.51 432.65, 544.42 216.73, 737.24 1.02 M171.66 649.93 C343.06 452.39, 516.05 253.67, 736.19 0.58 M176.66 650.53 C317.59 487.23, 460.08 323.88, 741.99 -0.89 M176.59 650.35 C383.13 414.15, 589.91 176.77, 742.25 0.17 M181.47 650 C341.23 466.44, 500.74 282.83, 746.52 0.18 M182.2 649.9 C355.68 447.39, 530.72 245.45, 746.83 0.44 M186.66 650.38 C338.07 478.22, 487.28 306.68, 753.27 -0.84 M187.21 650.71 C403 402.62, 618.5 154.64, 752.48 0 M192.31 650.09 C317.85 506.94, 443.95 362.4, 757.97 0.45 M192.61 649.99 C389.46 421.23, 587.99 192.91, 758 -0.07 M197.95 650.8 C375 450.39, 549.46 248.06, 762.99 -0.68 M198.14 650.53 C335.86 492.5, 471.43 336.84, 763.43 -0.58 M203.19 650.08 C332.94 501.07, 461.27 352.2, 768.21 0.23 M203.28 649.95 C388.76 434.32, 576.02 218.79, 768.13 -0.1 M208.1 650.06 C422.52 404.83, 637.12 158.15, 774.78 -0.11 M208.52 650.35 C376.19 458.62, 541.09 268.8, 774.17 -0.2 M213.87 650.13 C370.93 471, 525.78 290.66, 779.24 0.73 M213.98 650 C427.96 404.44, 642.72 156.52, 778.81 0.31 M218.45 650.81 C389.18 452.82, 561.07 254.65, 785.25 0.38 M219.07 650.59 C425.96 410.87, 634.8 170.57, 784.33 -0.61 M225.14 649.59 C416.59 432.31, 606.46 212.59, 789.7 0.34 M225.1 649.69 C426.42 419.07, 627.56 187.58, 789.64 -0.16 M230.21 649.68 C381.29 473.41, 536.11 295.15, 796.05 0.25 M230.13 650.41 C386.08 467.93, 544.11 286.04, 795.36 -0.63 M234.77 649.38 C391.51 469.44, 549.73 288.08, 800.44 0.21 M235.6 649.87 C423.92 429.17, 615.4 209.45, 800.21 0.27 M240.36 650.88 C419.57 443.59, 597.38 238.97, 806.63 -0.22 M240.39 650.46 C410.43 454.07, 582.52 256.01, 806.09 -0.57 M245.71 650.38 C458.81 408.74, 670.03 165.57, 810.5 0.32 M245.18 650.66 C435.72 429.17, 627.12 208.79, 811.3 -0.32 M250.5 649.45 C374.25 512.73, 493.1 375.65, 815.98 -0.03 M251.37 650.11 C423.01 449.96, 596.51 251.64, 815.71 0.51 M256.69 651.17 C476.9 397.85, 697.48 145.09, 821.17 0.21 M255.71 650.39 C477.52 393.13, 699.39 138.31, 821.29 0.06 M261.26 649.56 C483.11 391.91, 705.63 136.24, 826.1 0.36 M261.37 650.2 C383.69 508.28, 507.83 366.09, 826.74 0.59 M267.07 650.21 C431.42 461.57, 595.34 272.98, 831.9 -0.19 M266.89 650.61 C416.84 482.54, 563.78 312.73, 832.15 -0.3 M273.06 649.4 C409.99 496.78, 543.58 342.4, 837.22 -0.48 M272.29 650.32 C471.76 418.96, 673.94 186.42, 837.55 0.42 M277.09 649.97 C468.26 429.98, 661.7 208.91, 842.81 0.25 M277.65 650.18 C465.25 433.5, 654.93 215.4, 842.64 0.02 M282.15 649.95 C492.27 411.21, 702.09 169.75, 848.03 0.87 M282.82 649.95 C461.22 447.85, 637.95 245.25, 847.74 0.12 M288.01 650.51 C403.14 518.73, 519.1 383.48, 853.8 -0.17 M287.54 650.47 C474.08 435.7, 659.5 221.96, 853.53 -0.49 M294.19 649.37 C500.86 411.93, 707.44 173.68, 859.06 -0.17 M293.63 649.66 C433.88 490.82, 573.46 330.38, 858.73 0.29 M298.07 650.3 C439.38 487.2, 578.67 328.23, 863.78 -0.33 M298.68 650.19 C516.76 402.97, 733.99 152.9, 863.95 -0.2 M304.23 650.2 C445.29 488.46, 585.44 326.55, 868.61 0.57 M303.81 649.95 C423.33 516.41, 540.35 380.69, 869.32 0.05 M309.76 650.18 C432.52 507.77, 558.35 363.47, 874.68 -0.37 M308.99 650.53 C517.07 410.83, 726.88 169.68, 875.07 -0.39 M315.17 650.59 C535.45 397, 755.48 143.03, 880.04 0.88 M314.42 650.02 C434.5 511.5, 554.35 373.21, 879.28 -0.18 M319.36 650.96 C537.01 394.97, 758.06 140.57, 885.85 -0.81 M319.81 649.97 C537.8 401.79, 754.75 152.36, 885.62 -0.04 M325.7 649.84 C442.62 515.69, 560.43 379.99, 889.68 -0.67 M325.74 649.77 C526.66 420.02, 728.24 188.09, 890.62 0.15 M330.57 651.08 C446.41 513.64, 563.15 379.91, 896.45 -0.18 M330.62 650.34 C466.51 491.54, 605.32 332.67, 896.32 -0.21 M335.92 649.28 C490.34 475.88, 643.74 298.54, 900.51 0.86 M336.01 650.2 C513.27 446.87, 689.95 243.01, 900.71 0.46 M340.91 650.52 C473.71 499.06, 603.98 350.08, 906.24 -0.65 M341.15 649.94 C455.64 520.38, 569.43 389.25, 906.31 -0.47 M346.55 649.79 C573.32 388.98, 799.9 128.54, 911.69 0.02 M346.7 649.83 C478.48 497.81, 609.94 347.42, 911.52 0.3 M352.1 650.09 C469 512.34, 589.49 375.38, 918 -0.76 M351.68 650.38 C482.41 501.78, 612.27 351.58, 917.52 -0.05 M357.46 650.23 C558.27 419.26, 758.08 187.98, 922.62 -0.66 M356.58 650.65 C492.05 494.6, 626.57 340, 922.02 -0.29 M362.87 650.56 C478.57 516.11, 593.24 383.07, 927.12 -1.12 M361.92 649.8 C550.72 432.76, 738.52 217.63, 927.84 -0.73 M367.91 649.94 C565.76 420.76, 764.77 189.63, 932.08 0.53 M367.22 650.66 C555.53 432.76, 744.05 216.13, 932.58 -0.34 M372.98 650.3 C519.69 483.1, 666.26 315.34, 937.77 0.46 M372.95 650.43 C502.69 500.15, 634.09 349.01, 938.15 0.03 M378.2 650.96 C578.16 417.76, 780.01 185.95, 943.9 0.5 M377.79 650.45 C547.85 456.78, 716.63 263.18, 943.74 0.01 M383.98 650.86 C565.68 441.15, 747.09 232.21, 948.65 0.26 M383.64 650.2 C548.86 460.88, 713.06 271.59, 948.84 -0.02 M388.3 650.91 C600.91 408.08, 812.08 164.13, 953.3 0.14 M388.91 650.57 C608.3 400.4, 826.09 148.57, 954.27 -0.08 M393.66 649.79 C586.58 427.12, 778.94 206.18, 959.56 0.42 M394.28 650.35 C609.84 398.76, 826.86 148.74, 958.76 0.24 M399.59 651.05 C605.84 411.37, 814.06 173.55, 965.32 0.33 M399.21 650.27 C526.54 502.33, 656.98 352.46, 964.69 -0.13 M404.79 649.4 C609.62 415.29, 815.88 178.68, 969.93 0.31 M404.52 650.24 C528.92 505.03, 654.44 360.3, 969.79 0.3 M409.26 650.59 C602.27 430.58, 793.95 209.35, 974.79 -0.47 M409.69 650.29 C602.28 428.82, 794.23 208.06, 975.34 -0.36 M414.79 649.63 C547.38 497.46, 679.92 344.81, 980.62 -0.3 M415.43 650.13 C551.24 495.39, 687.18 339.89, 980.23 -0.08 M420.71 650.74 C561.11 487.58, 702.94 324.37, 986.4 -0.61 M420.18 650.09 C645.68 390.2, 870.15 132.2, 985.97 -0.48 M426.05 650.36 C590.21 457.97, 756.8 265.54, 991.5 -0.48 M425.87 649.96 C594.06 458.99, 761.71 266.17, 990.75 0.42 M431.57 650.7 C604.27 451.04, 776.93 253.78, 996.21 -0.83 M431.27 650.65 C639.64 413.88, 846.4 176.25, 996.88 -0.1 M437.2 650.7 C598.69 463.1, 760.64 276.68, 1002.24 -0.48 M436.89 649.82 C653.97 404.64, 868.84 157.44, 1001.62 0.18 M442.47 650.05 C584.62 485.81, 727.03 321.53, 1006.9 -0.32 M441.55 650.02 C661.86 399.01, 878.67 149.05, 1007 0.08 M447.09 649.72 C585.79 488.38, 726.18 326.55, 1011.55 0.61 M447.32 650.28 C618.02 450.96, 789.7 252.7, 1012.3 -0.1 M453.04 649.57 C621.55 457.94, 788.84 266.25, 1017.38 -0.65 M452.02 650.2 C601.84 477.65, 753.35 304.18, 1018.23 -0.54 M458.75 650.49 C584.03 508.54, 707.99 367.29, 1022.72 -0.69 M458.2 649.61 C576.75 510.81, 695.16 374.37, 1022.65 -0.2 M462.75 650.41 C678.5 396.68, 896.19 147.38, 1028.36 -0.23 M463.25 650.26 C578.59 516.07, 694.69 382.64, 1028.69 -0.43 M469.06 649.66 C660.14 433.29, 848.47 216.07, 1033.28 -0.28 M468.37 649.81 C619.75 477.66, 769.55 304.85, 1033.32 -0.02 M473.27 650.13 C650.94 441.19, 830.38 234.91, 1038.36 0.14 M473.43 649.99 C625.64 477.2, 775.86 304.61, 1039.47 -0.39 M478.43 650.23 C662.01 438.1, 848.97 223.27, 1043.75 -0.09 M478.98 650.53 C680.77 413.64, 885.74 178.8, 1043.76 0.08 M484.46 649.86 C619.54 492.7, 756.03 336.39, 1048.67 0.39 M484.33 650.3 C652.88 460.19, 820.06 267.84, 1048.81 0.07 M489.46 651.32 C625.61 493.97, 759.96 338.93, 1055.28 -0.83 M489.38 650.44 C615.58 505.29, 740.05 361.5, 1055.01 -0.38 M495.23 650.32 C693.28 424.37, 891.86 196.52, 1060.35 0.58 M494.51 650.37 C617.32 509.54, 737.67 371.13, 1059.91 0.07 M500.59 650.29 C663.07 464, 827.08 274.05, 1065.62 0.34 M499.91 650.63 C660.88 463.9, 824.55 275.89, 1065.3 0.03 M505.89 649.42 C727.43 396.54, 946.81 144.88, 1071.09 -0.18 M505.33 649.73 C685.79 444.23, 865.31 237.1, 1070.18 -0.11 M511.14 650.15 C632.39 508.33, 755.92 365.19, 1076.35 -0.51 M510.18 650.28 C644.46 495.96, 780.28 339.25, 1076.06 0.25 M515.75 649.45 C711.5 424, 907.44 199.43, 1080.29 0.45 M515.73 650.19 C731.99 401.8, 947.94 153.06, 1080.71 -0.01 M521.42 649.9 C717.18 420.46, 915.74 193.35, 1087.24 -0.56 M521.19 650.34 C677.37 472.59, 831.86 293.97, 1086.71 -0.46 M527.13 649.92 C732.79 412.1, 938.3 175.8, 1092.31 -0.01 M526.68 649.86 C731.48 419.07, 934.71 185.06, 1091.96 0.52 M531.98 650.11 C708.93 446.02, 884.94 242.11, 1097.09 -0.58 M531.73 650.61 C653.85 507.93, 776.19 366.56, 1097.46 -0.57 M536.59 649.88 C672.13 498.46, 803.31 347.61, 1102.97 -0.03 M537.49 649.98 C691.4 473.7, 845.82 295.66, 1102.6 0.12 M542.77 650.54 C727.2 433.41, 914.38 220.06, 1107.7 -0.97 M541.99 650.23 C667.51 507.14, 792.74 362.72, 1108.13 -0.6 M548.48 650.39 C710.05 460.69, 873.9 272.42, 1113.07 0.28 M547.92 649.69 C734.77 433.58, 922.05 218.68, 1113.07 0.37 M552.34 650.96 C735.62 435.17, 921.68 222.12, 1118.29 -0.92 M553.15 650.45 C702.27 474.71, 854.25 300.11, 1118.5 -0.39 M558.17 650.51 C738.06 441.27, 917.3 234.7, 1122.85 0.02 M558.48 649.61 C678.85 514.06, 798.18 377, 1123.63 -0.28 M563.48 650.3 C694.95 501.46, 823.5 353.46, 1129.49 -0.85 M563.77 650.19 C714.39 479.93, 863.67 308.78, 1128.78 -0.28 M568.84 649.66 C713.44 484.46, 856.34 319.85, 1134.32 -0.13 M569.3 649.9 C779.31 410.38, 988.63 169.32, 1133.91 0.36 M574.37 650.69 C715.36 487.21, 857.49 323.88, 1139.35 0 M574.24 650.51 C766.24 430.4, 958.37 209.48, 1139.97 -0.67 M579.48 650.08 C739.11 470.52, 894.67 291.42, 1144.16 -0.31 M579.69 649.82 C774.12 428.1, 968.73 204.53, 1144.97 -0.23 M584.2 650.25 C705.13 511.32, 827.11 370.35, 1150.51 -0.39 M584.71 650.17 C786.25 419.62, 985.75 188.94, 1150.23 -0.1 M589.84 650.32 C768.99 440.04, 949.4 232.11, 1155.61 -0.66 M589.5 650.47 C724.99 494.63, 860.35 338.33, 1155.62 -0.07 M595.59 650.28 C730.61 492.84, 866.89 336.45, 1160.8 1.08 M595.53 650.04 C816.7 394.82, 1039.95 137.95, 1160.29 0.39 M600.65 651.08 C803.42 413.45, 1008.86 177.3, 1166.55 -0.55 M600.54 650.61 C738.28 492.44, 877.82 332.07, 1166.08 -0.27 M605.77 649.67 C742.23 490.52, 878.34 333.24, 1171.4 0.82 M606.05 650.26 C762.36 473.79, 916.77 295.35, 1170.84 0.18 M610.49 650.89 C796.93 432.02, 986.55 214.9, 1176.67 0.66 M611.46 650.76 C793.63 439.07, 977.64 227.39, 1176.78 0.18 M616.97 650.5 C747.04 499.57, 879.22 348.35, 1182.15 0.32 M616.63 649.94 C745.46 498, 876.37 348.68, 1181.38 0.04 M622.4 650.32 C737.6 514.69, 854.74 379.57, 1186.67 -0.41 M621.55 650.61 C800.46 445.35, 980.25 238.75, 1187.14 -0.02 M627.64 650.84 C754.19 501, 881.8 353.22, 1191.76 0.68 M627.38 649.83 C759.85 498.85, 889.27 349.45, 1192.47 0.26 M632.84 650.34 C809.31 450.01, 984.53 249.33, 1197.45 -0.77 M632.08 650.14 C768.13 495.43, 903.69 339.71, 1197.54 -0.05 M638.04 650.34 C828.24 429.86, 1018.59 211.41, 1202.74 1.01 M637.85 650.44 C784.82 476.98, 933.84 305.72, 1203.07 0.27 M643.67 649.9 C764.22 511.93, 883.5 375.31, 1207.75 0.18 M642.74 650.04 C857.97 401.7, 1075.38 151.9, 1208.19 0.2 M649.45 649.45 C802.56 471.89, 955.67 295.29, 1214.23 0.79 M648.95 649.94 C789.99 487.94, 932.73 323.99, 1213.31 0.58 M653.37 649.92 C785.28 497.05, 919.27 343.22, 1219.71 -0.19 M653.6 650.5 C775.37 508.69, 898.9 366.21, 1219.49 -0.24 M658.56 650.18 C793.87 496.34, 928.45 340.43, 1224.37 0.68 M659.4 650.26 C851.83 431.88, 1042.76 211.95, 1224.14 0.03 M664.24 650.93 C867.15 419.44, 1068.73 188.51, 1230.06 -0.5 M663.91 650.04 C830.06 461.26, 995.23 271.71, 1230.02 0.15 M669.46 650.56 C811.08 491.26, 948.62 331.03, 1234.32 0.16 M670.12 650.18 C892.55 393.82, 1116.29 136.44, 1234.5 0.15 M675.18 650.65 C836.92 465.34, 998.59 279.68, 1240.58 -1.01 M674.95 650.65 C859.44 440.94, 1042.7 229.6, 1240.16 -0.58 M680.06 650.2 C902.91 394.55, 1127.74 135.92, 1245.84 -0.13 M680.61 649.82 C861.83 441.57, 1044.32 232.01, 1245.7 -0.02 M685.71 649.56 C909.35 393.71, 1131.06 138.12, 1250.83 0.44 M685.55 650.25 C864.05 444.72, 1044.22 237.23, 1250.88 -0.29 M690.89 649.47 C914.88 391.3, 1138.9 134.1, 1255.71 0.84 M690.97 650.21 C886.83 426, 1080 203.09, 1256.27 0.46 M696.77 650.15 C921 394.09, 1142.96 138.43, 1262.21 -0.45 M696.57 650.27 C836.51 489.52, 975.31 329.36, 1261.76 -0.33 M701.09 650.37 C841.7 489.66, 982.18 327.67, 1266.13 0.5 M701.49 649.66 C875.81 448.1, 1050.05 247.48, 1266.32 0.05 M706.69 649.7 C847.49 486.53, 990.2 322.96, 1272.31 -0.74 M706.44 650.43 C909.35 413.07, 1112.82 178.97, 1272.14 -0.35 M711.75 650 C909.15 423.75, 1107.21 197.14, 1277.5 -0.15 M711.6 650.56 C937.32 392.39, 1162.4 133.81, 1277.16 -0.09 M716.83 650.67 C873.62 469.47, 1031.16 287.91, 1283.09 0.03 M717.21 649.96 C883.33 461.43, 1048.43 271.46, 1282.54 0.47 M722.95 651.23 C835.95 521.7, 949.33 391.39, 1287.64 -0.51 M722.1 650.34 C844.72 510.29, 965.95 371.07, 1287.69 0.3 M727.56 650.3 C861.34 497.49, 994.45 344.26, 1293.08 0.82 M727.68 650.41 C922.24 427.6, 1117.05 203.72, 1292.81 0 M733.79 650.33 C903.7 454.93, 1071.18 261.21, 1298.33 1.17 M733.19 650.4 C896.4 460.26, 1060.85 271.05, 1298.16 0.95 M739.06 649.42 C869.99 500.06, 1000.67 352.23, 1297.97 6.47 M738.7 650.43 C850.72 521.4, 962.86 391.92, 1297.53 7.24 M744.28 650.85 C878.54 499.66, 1010.82 345.07, 1298.62 12.82 M743.56 650.28 C956.73 405.89, 1169.89 161.14, 1297.86 12.9 M748.92 650.07 C873.41 506.77, 996.12 365.64, 1297.51 18.34 M749.46 650.16 C872.36 511.9, 992.79 373.2, 1298.16 19.09 M753.81 650.69 C872.83 513.02, 990.6 377.51, 1298.01 24.08 M754.05 650.45 C960.08 411.91, 1166.23 174.33, 1297.92 24.82 M759.35 649.85 C931.56 453.48, 1102.55 255.69, 1298.16 30.79 M759.58 650.07 C938.41 440.53, 1119.08 233.22, 1298.01 31.52 M765.18 650.96 C937.58 449.33, 1111.36 248.87, 1297.72 37.86 M764.93 650.26 C971.33 412.16, 1177.08 175.48, 1297.37 37.35 M769.96 650.75 C915.19 483.75, 1057.94 319.78, 1297.99 42.67 M770.26 649.72 C959.36 430.16, 1149.44 211.68, 1298.01 43.55 M775.83 650.35 C911.33 498.32, 1044.73 344.94, 1297.53 50.37 M775.44 649.98 C903.67 504.54, 1030.58 358.94, 1297.58 49.98 M781.8 650.37 C975.95 424.11, 1174.37 197.73, 1297.83 56.76 M781.49 649.78 C925.78 481.17, 1070.87 314.08, 1297.82 56.23 M786.6 650.75 C986.3 417.81, 1188.79 186.38, 1297.48 61.3 M785.83 650.39 C892.84 525.55, 1001.19 400.14, 1297.96 61.97 M791.69 650.67 C894.4 529.43, 998.31 409.63, 1298.3 67.97 M791.67 650.03 C977.32 437.47, 1161.55 224.59, 1298.07 67.65 M796.12 650.01 C961.95 457.7, 1127.25 265.58, 1298.08 73.15 M796.93 649.97 C940.88 482.88, 1084.39 318.04, 1298.17 73.72 M802.7 649.22 C920.26 513.04, 1037.95 377.69, 1298.25 79.86 M802.78 649.75 C926.21 506.92, 1050.93 363.18, 1297.59 80.28 M808.07 650.79 C979.45 449.58, 1152.98 249.48, 1298.19 87.18 M807.37 650.1 C947.2 492.94, 1085.1 333.81, 1297.21 86.3 M813.69 649.56 C923.49 524.15, 1034.52 395.51, 1298.2 92.81 M812.79 649.74 C939.41 504.17, 1065.15 359.88, 1298.1 91.94 M817.52 650.14 C986.29 458.48, 1152.58 267.37, 1298.45 97.97 M817.98 649.89 C982.69 461.59, 1146.57 272.78, 1298.04 98.83 M822.69 649.98 C951.2 500.96, 1082.03 349.98, 1297.3 104.01 M823.43 650.25 C958.71 494.67, 1092.95 340.69, 1298.28 104.14 M829.35 649.87 C963.7 492.89, 1099.59 335.96, 1298.15 109.93 M828.97 650.52 C942.03 522.81, 1053.41 395.01, 1297.63 110.2 M833.51 650.9 C982.29 478.66, 1130.8 306.95, 1298.23 116.97 M833.55 650.76 C967.91 493.3, 1102.89 338.2, 1297.56 116.89 M839.86 649.41 C1010.69 455.76, 1181.66 259.53, 1298.65 122.34 M839.55 650.11 C959.51 511.3, 1081.35 371.97, 1298.02 122.82 M844.59 650.57 C963.26 514.09, 1083.19 377.27, 1297.86 129.75 M844.48 650.15 C951.31 527.48, 1058.31 404.41, 1297.54 129.2 M850.37 649.76 C967.66 513.53, 1087.05 376.74, 1298.71 134.03 M849.94 650.47 C1007.18 472.37, 1162.68 293.14, 1298.04 134.25 M855.65 650.91 C959.3 530, 1063.99 408.89, 1298.53 141.83 M854.95 650.42 C1005.1 479.69, 1153.83 308.46, 1297.63 140.88 M860 649.51 C972.49 522.15, 1082.62 394.88, 1297.86 148.2 M860.92 650.31 C1008.11 479.78, 1154.19 311.41, 1297.85 147.09 M866.22 650.98 C1012.31 483.37, 1159.05 315.02, 1298.61 153.55 M865.72 650.7 C1037.44 453.16, 1209.47 255.63, 1298.11 153.07 M871.29 650.45 C1005.5 497.8, 1137.27 344.52, 1298.21 158.96 M871.1 649.66 C1002.13 500.02, 1132.55 350.43, 1297.97 159.17 M876.45 651.08 C1003.94 502.94, 1131.87 354.43, 1297.51 164.42 M875.93 650.03 C999.86 507.15, 1123.95 365.09, 1298.23 165.44 M881.39 650.33 C970.65 546.3, 1059.78 443.77, 1298.09 171.08 M882.05 650.26 C989.3 526.43, 1097.19 402.59, 1298.17 171.72 M886.29 650.24 C979.93 546.16, 1070.19 440.84, 1297.37 177.9 M886.7 650.12 C1002.52 517.49, 1117.83 385.21, 1297.58 178.08 M892.45 650.1 C988.92 538.03, 1085.68 427.32, 1298.74 183.35 M892.35 650.33 C984.1 544.98, 1076.2 438.61, 1298.04 183.5 M897.91 650.33 C989.85 546.65, 1081.38 441.15, 1296.94 189.57 M897.57 650.23 C1011.61 517.45, 1126.59 384.82, 1297.54 189.78 M902.86 649.92 C1002.01 534.31, 1102.29 418.54, 1297.98 194.95 M902.79 649.82 C1047 481.93, 1191.84 314.81, 1298.38 195.97 M908.49 650.38 C988.88 559.07, 1067.29 466.85, 1298 202.06 M908.45 650.69 C995.33 552.57, 1081.96 452.55, 1297.69 202.05 M914.4 649.91 C1001.61 548.25, 1089.56 445.01, 1296.8 208.62 M913.53 649.99 C1015.24 535.09, 1115.32 419.44, 1297.72 208.08 M919.03 650.6 C1024.6 525.47, 1132.27 401.46, 1297.6 213.25 M918.46 650.17 C1019.44 535.21, 1120.84 418.27, 1298.06 214.17 M925.06 649.39 C1051.29 504.58, 1179.59 357.56, 1297.97 220.41 M924.52 649.78 C1004.27 557.97, 1085.23 465.3, 1297.76 220.79 M928.72 650.02 C1056.93 501.55, 1186.3 352.41, 1297.79 225.79 M929.51 650.01 C1070.18 486.73, 1212.29 324.31, 1298.09 225.94 M934.02 650.01 C1024.45 546.3, 1116.45 441.94, 1298.09 233.02 M934.48 650.22 C1068.86 495.37, 1204.01 340.24, 1298.22 232.46 M940.59 650.42 C1057.31 513.17, 1174.17 378.65, 1297.8 239.06 M940.3 649.9 C1012.68 563.77, 1086.94 477.96, 1297.94 238.8 M944.99 650.36 C1025.53 556.73, 1105.7 464.87, 1297.46 243.97 M944.65 650.16 C1082.1 492.67, 1218.04 337.13, 1298.26 244.17 M951.06 650.79 C1056.6 529.41, 1159.81 409.59, 1297.42 250.2 M950.73 649.79 C1073.6 509.26, 1196.32 368.9, 1297.54 250.85 M955.17 651.26 C1035.19 558.73, 1115.02 465.38, 1298.56 256.81 M955.33 650.44 C1074.17 511.93, 1194.02 374.05, 1297.85 256.94 M961.99 649.71 C1091.38 499.26, 1223.08 347.21, 1297.11 262.57 M961.47 650.36 C1065.41 531.44, 1169.24 411.82, 1297.85 263.33 M966.6 650.4 C1042.89 562.32, 1121.1 474.18, 1298.24 269.78 M966.45 650.43 C1060.16 542.81, 1152.95 436.45, 1297.5 269.62 M971.82 649.33 C1059.21 547.4, 1147.4 444.74, 1298.17 275.58 M972.03 650.21 C1081.89 522.06, 1193.34 394.12, 1298.27 274.87 M976.73 650.2 C1067.04 545.05, 1159.61 440.12, 1297.52 281.69 M976.53 650.84 C1046.69 570.95, 1116.84 490.98, 1298.08 281.11 M982.86 649.79 C1066.12 553.49, 1152.16 454.94, 1298.12 287.86 M982.68 650.22 C1107.47 507.78, 1231.42 364.99, 1297.99 287.41 M987.24 650.78 C1067.74 560.07, 1148.36 467.96, 1298.59 294 M987.09 650.85 C1089.75 532.45, 1192.44 414.59, 1298.06 293.76 M994.01 650.08 C1070.64 561.06, 1147.34 470.68, 1297.19 300.24 M993.28 649.96 C1110.6 515.71, 1228.02 381.28, 1297.35 300.08 M998.54 650.44 C1086.79 549.16, 1175.07 447.16, 1298.15 305.21 M998.36 650.03 C1062.33 574.02, 1126.55 499.41, 1298.2 305.68 M1004.66 650.3 C1104.84 530.18, 1207.26 412.79, 1297.1 312.27 M1003.66 649.75 C1094.39 545.24, 1185.77 439.26, 1297.7 311.41 M1008.38 650.01 C1116.02 526.33, 1221.02 403.95, 1297.88 317.94 M1008.38 650 C1123.16 518.1, 1237.2 387, 1297.93 317.91 M1013.85 649.03 C1074.78 576.63, 1137.42 506.33, 1297.94 323.93 M1014.1 650.37 C1112.87 538.22, 1211.61 425.32, 1297.65 323.89 M1018.51 650.56 C1109.33 547.38, 1199.12 442.77, 1297.89 329.33 M1019.15 650.24 C1080.81 581.11, 1140.44 512.52, 1298.02 330.26 M1025.54 650.49 C1128.81 530.64, 1232.11 410.22, 1297.67 335.37 M1024.97 649.42 C1117.99 542.34, 1209.42 436.28, 1298.18 335.49 M1030.27 650 C1087.04 585.14, 1143.83 516.83, 1297.98 342.83 M1029.56 650.29 C1124.86 541.63, 1219.11 433.63, 1297.63 342.69 M1035.22 648.99 C1114.14 559.27, 1192.64 467.59, 1298.63 349.02 M1036.12 650.08 C1116.78 554.7, 1198.28 460.41, 1298.49 347.84 M1040.91 650.47 C1091.69 591.93, 1144.25 531.76, 1298.82 355.33 M1040.85 650.27 C1118.95 559.87, 1198.36 469.12, 1298.12 354.15 M1045.46 648.94 C1120.92 565.18, 1194.71 479.99, 1297.4 360.17 M1046.15 650.13 C1140.88 541.5, 1235.03 434.22, 1297.81 360.26 M1051.09 650.84 C1107.79 586.21, 1163.93 521.81, 1296.9 367.59 M1051.76 650.54 C1125.48 563.8, 1201.6 476.97, 1297.65 366.55 M1055.96 649.55 C1108.09 589.01, 1163 529.36, 1297.24 373.24 M1055.85 650.56 C1153.95 541.07, 1248.9 431.98, 1297.66 372.78 M1061.95 649.75 C1143.54 559.36, 1223.88 465.34, 1299.15 377.35 M1062.36 649.77 C1109.68 593.3, 1159.96 535.66, 1297.84 378.23 M1066.79 649.36 C1157.82 545.53, 1247.91 442.98, 1298.91 384.3 M1066.95 650.07 C1143.87 561.13, 1222.15 471.21, 1297.29 384.29 M1071.24 649.56 C1158.16 547.2, 1248.11 445.91, 1296.94 391.29 M1072.39 650.53 C1160.9 549.02, 1250.07 446.84, 1297.96 391.13 M1078.22 649.87 C1138.51 580.62, 1195.33 512.1, 1298.98 395.92 M1077.24 650.14 C1149.87 565.94, 1223.18 481.38, 1298.25 397.48 M1082.18 650.28 C1153.12 568.55, 1222.76 487.83, 1297.01 403.14 M1083.27 649.84 C1141.17 584.67, 1198.03 518.34, 1297.82 403.57 M1086.82 651.19 C1163.27 564.68, 1238.56 479.63, 1298.05 409.71 M1087.69 650.06 C1169.02 557.07, 1250.59 462.89, 1297.8 408.66 M1094.61 650.42 C1151.17 581.51, 1209.82 514.84, 1299 414.5 M1093.45 650.12 C1169.33 564.34, 1242.91 479.31, 1297.15 415.25 M1099.9 651.25 C1161.42 580.66, 1221.14 511.22, 1296.53 422.4 M1098.71 651 C1154.9 586.23, 1212.11 520.57, 1298.26 421.05 M1105.75 651.22 C1168.09 580.27, 1227.23 508.44, 1298.45 428.55 M1104.41 650.68 C1152.08 595.45, 1200.1 541.55, 1297.91 427.73 M1108.94 649.9 C1151.89 598.34, 1197.81 547.54, 1298.92 432.33 M1109.23 651.13 C1162.76 586.78, 1216.93 524.62, 1297.95 433.18 M1114.35 649.47 C1162.26 596.42, 1207.59 541.46, 1299.06 440.46 M1114.42 649.36 C1150.83 605.74, 1188.51 563.83, 1298.45 438.8 M1119.44 650.86 C1188.38 573.37, 1255.27 494.49, 1299.23 446.36 M1120.36 650.49 C1163.28 600.86, 1206.06 552.18, 1297.85 445.3 M1125.77 651.02 C1168.21 601.98, 1211.3 552.41, 1296.1 451 M1125.06 649.5 C1182.65 580.9, 1242.19 514.21, 1297.84 452.83 M1129.2 651.08 C1174.65 601.51, 1217.44 549.39, 1296.62 456.88 M1130.11 650.58 C1173.35 602.28, 1214.37 554.83, 1297.81 458.6 M1135.07 651 C1174.16 605.35, 1210.17 563.67, 1299.05 462.77 M1136.05 650.19 C1186.81 592.48, 1235.35 536.13, 1297.85 464.86 M1142.03 651.25 C1188.72 593.54, 1239.41 539.92, 1297.29 468.53 M1142.08 650.4 C1173.79 613.93, 1207.45 575.63, 1298.05 470.53 M1147.27 650.63 C1183.88 608.88, 1220.57 569.55, 1297.39 476.95 M1147.49 649.75 C1201.61 584.81, 1257.54 521.21, 1298.37 476.62 M1153.21 651.24 C1187.76 611.67, 1221.85 571.34, 1296.02 482.18 M1151.68 650.32 C1194.58 601.6, 1237.24 553.45, 1297.74 482.61 M1156.23 649.54 C1201.33 600.93, 1243.52 552.9, 1297.11 487.83 M1157.29 650.03 C1202.08 598.25, 1246.39 547.6, 1297.36 488.12 M1164.08 651.77 C1198.47 607.58, 1238.57 561.55, 1296.52 496.38 M1161.75 649.69 C1194.32 616.49, 1225.54 580.76, 1298.38 495.3 M1169.52 651.76 C1213.43 596.14, 1261.42 543.96, 1299.21 498.69 M1168.36 651.49 C1217.91 593.86, 1267.28 538.12, 1297.88 501.06 M1173.97 648.95 C1217.39 600.75, 1260.38 554.34, 1299.66 506.41 M1173.64 649.3 C1205.32 613.77, 1238.41 576.59, 1297.22 506.34 M1176.82 649.58 C1219.9 604.6, 1258.95 560.16, 1295.72 511.77 M1177.76 650.29 C1213.02 612.89, 1246.38 573.53, 1298.25 512.92 M1185.28 651.14 C1215.32 617.14, 1243.94 583.26, 1299.54 517.44 M1184.03 651.14 C1226.77 602.32, 1266.71 555.28, 1298.22 519.34 M1189.57 649.23 C1219.13 614.05, 1249.49 580.14, 1297.75 525.62 M1188.82 650.22 C1213.26 621.23, 1238.49 593.81, 1298.23 524.51 M1194.5 650.27 C1226.74 612.44, 1262.74 570.48, 1296.43 529.53 M1195.19 650.67 C1218.88 622.67, 1241.45 596.66, 1297.16 530.48 M1198.57 650.17 C1239.73 607.37, 1276.88 562.7, 1298.1 538.07 M1199.01 650.6 C1227.92 616.3, 1256.96 583.65, 1298.74 537.7 M1205.46 651.05 C1241.35 608.3, 1277.68 568.2, 1298.66 543.27 M1204.49 650.21 C1231.81 618.29, 1259.89 588.3, 1297.54 543.88 M1211.16 651.87 C1229.07 629.7, 1247.68 607.68, 1299.74 549.19 M1210.33 649.98 C1228.33 628.08, 1246.91 606.07, 1297.3 549.38 M1215.51 649.16 C1241.28 621.92, 1268.57 591.92, 1299.03 554.92 M1215.28 649.81 C1241.07 621.49, 1264.95 594.01, 1298.32 555.68 M1221.23 651.72 C1241.38 625.44, 1263.5 599.35, 1297.19 559.99 M1220.24 651.19 C1239 629.22, 1257.38 606.2, 1298.43 561.2 M1225.54 649.26 C1252.21 619.96, 1282.69 590.38, 1296.92 567.02 M1225.88 650.33 C1250.98 621.66, 1274.94 594.44, 1297.01 567.53 M1231.17 651.13 C1246.66 635.04, 1258.14 618.06, 1297.85 575.22 M1230.69 650.33 C1249.5 631.19, 1267.16 610.65, 1297.98 573.31 M1237.97 650.96 C1249.89 634.06, 1265 616.21, 1298.89 579.27 M1236.62 650.34 C1261 621.27, 1286.02 594.33, 1297.2 580.62 M1241.92 649.43 C1255.22 634.72, 1266.7 623.36, 1298.59 586.33 M1241.12 649.74 C1256.16 633.66, 1271.04 615.08, 1296.76 586.4 M1246.75 650.85 C1262.61 629.15, 1278.96 613.67, 1300.03 591.39 M1246.79 649.24 C1258.7 636.18, 1270.52 623.33, 1299.01 591.37 M1250.95 649.95 C1262.55 638.57, 1272.85 624.87, 1299.87 598.02 M1253.44 651.07 C1266.69 634.46, 1280.11 618.33, 1297.59 599.16 M1259.37 648.49 C1273.07 633.47, 1284.97 619.1, 1297.31 605.79 M1257.69 650.13 C1269.24 636.18, 1279.95 623.86, 1297.38 605.24 M1262.26 649.99 C1276.95 635.81, 1286.52 620.35, 1298.34 611.18 M1263.06 650.18 C1273.27 636.97, 1284.67 624.65, 1298.91 610.3 M1270.84 648.4 C1277.01 639.09, 1287.77 629.74, 1298.19 618.59 M1269.58 648.93 C1277.66 638.17, 1288.1 628.48, 1297.69 616.69 M1272.37 650.8 C1278.64 645.55, 1283.36 638.18, 1296.16 621.69 M1273.86 650.25 C1282.39 640.75, 1290.19 633.22, 1297.17 622.29 M1277.71 650.07 C1284.31 644.24, 1288.09 639.3, 1298.71 630.16 M1278.71 649.3 C1284.19 643.64, 1291.5 637.44, 1298.84 628.71 M1284.35 651.61 C1286.15 646.35, 1291.19 644.31, 1298.37 635.12 M1285.22 650.7 C1290.26 644.59, 1294.41 637.56, 1297.15 635.14 M1290.72 650.67 C1291.47 648.18, 1296.08 643.82, 1296.76 640.3 M1289.61 650.47 C1291.51 648.31, 1293.87 645.54, 1298.58 640.78 M1294.87 650.45 C1296.42 649.16, 1297.18 648, 1297.71 646.88 M1295.11 650.17 C1295.89 649.48, 1296.78 648.24, 1297.72 646.98" stroke="white" stroke-width="0.5" fill="none"></path><path d="M-0.1 0.18 C495.29 -3.65, 990 -2.67, 1296.29 0.38 M-0.25 -0.11 C507.3 -1.19, 1014.17 -1.24, 1297.16 0.35 M1297.2 -0.55 C1297.71 248.98, 1297.74 496.75, 1297.68 648.4 M1296.97 -0.03 C1296.12 245.49, 1296.11 490.54, 1296.78 648.4 M1297.16 649.34 C922.43 645.77, 548.09 645.27, -0.35 649.24 M1296.94 648.81 C972.58 651.5, 647.19 651.36, -0.29 648.33 M-0.37 648.15 C-2.71 477.63, -3.1 306.17, 0.32 0.09 M0.1 648.96 C1.8 443.51, 1.88 238.83, 0.23 -0.36" stroke="#000000" stroke-width="1" fill="none"></path></g><g stroke-linecap="round" transform="translate(101.08238851095996 174.12396069538931) rotate(0 130.0982615268329 91.06878306878306)"><path d="M-1.96 -0.26 L260.39 0.35 L259.3 183.1 L-0.12 182.25" stroke="none" stroke-width="0" fill="#ced4da"></path><path d="M-0.38 -1.45 C98.4 -0.32, 196.84 -1.16, 260.7 -1.4 M-0.45 0.58 C87.78 1.06, 174.06 2.31, 260.23 -0.14 M261.78 1.33 C257.57 41.36, 259.61 82.55, 260.51 180.66 M259.71 0.12 C261.87 49.53, 261.88 97.62, 260.09 183.07 M261.3 180.98 C168.54 184.01, 74.25 181.56, 0.88 181 M260.24 182.44 C181.52 182.67, 104.11 182.57, -0.43 181.68 M-1.74 182.48 C-0.35 114.13, -0.31 43.08, -0.09 0.77 M0.56 182.75 C-0.98 112.02, -0.86 40.32, -0.73 -0.05" stroke="#000000" stroke-width="2" fill="none"></path></g><g stroke-linecap="round" transform="translate(115.09297052154193 188.1345427059714) rotate(0 116.08767951625094 17.51322751322749)"><path d="M0.15 0.49 L234.13 -0.12 L231.06 35.6 L1.36 35.78" stroke="none" stroke-width="0" fill="#ffffff"></path><path d="M0.29 -1.18 C59.06 0.62, 116.2 -0.06, 232.13 -0.25 M-0.1 0.59 C89.19 0.97, 179.4 1.5, 232.92 0.4 M231.42 -0.4 C231.51 13.24, 232.28 27.91, 230.85 35.29 M232.89 0.16 C231.26 9.2, 231.6 17.85, 233.15 34.33 M230.98 34.81 C183.37 34.6, 133.04 37.3, -0.93 35.04 M232.08 34.5 C142.37 36.93, 53.31 36.12, -0.62 34.41 M1.21 36.7 C1.82 25, 1.88 10.83, -0.64 -0.25 M-0.67 34.34 C-0.84 24.24, -0.16 14.44, -0.82 -0.41" stroke="#000000" stroke-width="1" fill="none"></path></g><g stroke-linecap="round" transform="translate(940.7165532879817 149.1050642479213) rotate(0 132.60015117157968 194.64701436130008)"><path d="M-1.42 -0.31 L267.04 -0.66 L265.83 390.32 L1.82 389.6" stroke="none" stroke-width="0" fill="#868e96"></path><path d="M-1.29 -0.65 C64.46 0.72, 130.21 0.23, 264.32 0.45 M-0.2 0.53 C97.83 2.61, 194.69 2.41, 264.94 0.23 M265 -0.47 C266.38 120.99, 265.05 239.58, 264.29 389.6 M265.12 0.12 C263.91 120.61, 263.68 241.59, 265.25 388.95 M264.14 390.87 C173.02 391.44, 82.37 392.22, 1.32 389.62 M265.18 389.68 C171.25 387.83, 77.52 387.03, 0.21 389.09 M-0.93 390.42 C0.75 257.45, -0.02 126.83, -0.7 -0.68 M-0.12 389.36 C-0.31 306.55, 0.25 223.21, -0.49 0.12" stroke="#000000" stroke-width="2" fill="none"></path></g><g stroke-linecap="round" transform="translate(974.7422524565382 184.1315192743764) rotate(0 103.57823129251699 62.04686318972034)"><path d="M1.35 -0.99 L208.55 1 L206.17 123.21 L0.64 125.27" stroke="none" stroke-width="0" fill="#000000"></path><path d="M1.48 -1.21 C48.64 -1.31, 97.02 -1.04, 208.22 -0.71 M-0.35 -0.85 C48.03 1.89, 95.73 2, 207.12 0.52 M206.08 -1.31 C206.66 45.17, 206.51 91.34, 206.4 125.16 M207.17 0.5 C208.12 40.2, 208.49 80.81, 207.07 124.84 M208.27 123 C165.27 125.53, 122.33 124.21, -0.5 125.23 M207.44 124.94 C138.16 124.26, 68.05 124.91, 0.38 124.2 M-0.05 124.21 C0.1 91.85, -0.29 56.68, -1.75 -1.07 M-0.84 123.97 C-0.02 93.75, -0.74 63.04, 0.46 -0.95" stroke="#000000" stroke-width="1" fill="none"></path></g><g stroke-linecap="round" transform="translate(974.7422524565382 347.25472411186695) rotate(0 101.5767195767196 10.007558578987158)"><path d="M0.34 -1.85 L202.96 -1.64 L204.9 18.93 L0.45 21.34" stroke="none" stroke-width="0" fill="#ced4da"></path><path d="M1.14 0.6 C41.77 1.04, 82.96 2.22, 203.4 -0.76 M0.1 -0.28 C40.59 -0.41, 81.49 -0.72, 203.09 0.46 M202.08 -1 C203.9 7.23, 201.4 10.71, 204.14 21.38 M202.2 0.68 C202.86 6.24, 203.85 10.6, 202.71 20.34 M203.48 21.57 C131.36 20.66, 57.13 19.56, 0.56 20.62 M202.7 20.68 C127.56 21.26, 53.22 21.22, -0.35 19.52 M1.88 21.95 C1.17 13, -0.47 4.89, -0.62 0.7 M0.13 20.79 C0.18 12.27, -0.02 5.06, 0.12 -0.56" stroke="#000000" stroke-width="1" fill="none"></path></g><g stroke-linecap="round"><g transform="translate(923.7039146991456 308.2250364745029) rotate(0 -270.30534614414836 1.0938435106341444)"><path d="M0.52 0.5 C-89.63 0.98, -450.15 2.26, -540.6 2.46 M-0.67 -0.28 C-90.94 -0.13, -451.28 0.05, -541.13 0.58" stroke="#000000" stroke-width="1" fill="none"></path></g><g transform="translate(923.7039146991456 308.2250364745029) rotate(0 -270.30534614414836 1.0938435106341444)"><path d="M-512.13 -8.41 C-521.42 -7.61, -531.8 -1.03, -539.47 0.94 M-512.98 -9.63 C-518.58 -8.08, -525.9 -4.2, -540.69 0.65" stroke="#000000" stroke-width="1" fill="none"></path></g><g transform="translate(923.7039146991456 308.2250364745029) rotate(0 -270.30534614414836 1.0938435106341444)"><path d="M-512.07 12.11 C-521.31 6.21, -531.71 6.1, -539.47 0.94 M-512.92 10.89 C-518.71 7.97, -526.05 7.38, -540.69 0.65" stroke="#000000" stroke-width="1" fill="none"></path></g></g><g stroke-linecap="round" transform="translate(537.4119425547997 109.07482993197277) rotate(0 101.07634164777028 39.02947845804988)"><path d="M0.18 1.58 L200.27 0.21 L201.25 79.78 L-1.83 79.84" stroke="none" stroke-width="0" fill="#228be6"></path><path d="M-0.67 1.15 C73.08 -0.54, 144.26 0.39, 201.93 0.69 M0.61 -0.49 C73.26 -0.31, 147.64 1.07, 203.02 -0.68 M201.31 -0.03 C200.7 22, 201.6 42.27, 201.77 77.77 M202.93 0.39 C202.37 23.94, 203.33 47.07, 201.77 77.74 M201.47 76.89 C159.09 78.71, 115.49 79.03, 1.17 79.31 M201.72 77.4 C129.23 76.61, 55.81 76.92, -0.25 78.85 M-1.92 77.52 C-1.03 50.62, -0.5 23.5, -0.88 -0.42 M0.72 79 C-0.02 52.56, -0.09 25.89, 0.07 0.26" stroke="#000000" stroke-width="1" fill="none"></path></g><g stroke-linecap="round" transform="translate(539.413454270597 358.2630385487528) rotate(0 101.07634164777028 39.02947845804988)"><path d="M0.74 -1.61 L203.76 0.34 L201.45 79.49 L-1.59 76.99" stroke="none" stroke-width="0" fill="#12b886"></path><path d="M0.17 1.57 C64.16 -1.46, 130.07 -0.36, 203.21 1.05 M0.42 -0.62 C55.8 1.59, 110.1 1.04, 202.86 -0.01 M203.24 1.21 C200.36 20.81, 202.87 36.64, 202.1 79.78 M201.34 0.71 C202.73 21.22, 202.06 42.19, 201.95 78.22 M200.37 77.04 C152.26 79.4, 103.53 79.19, -1.21 78.82 M201.63 78.89 C141.21 76.53, 78.37 76.68, -0.75 78.49 M-0.27 79.05 C-1.54 58.34, 0.19 36.84, 0.19 0.2 M0.78 78.38 C-0.12 54.02, 0.33 31.28, -0.73 -0.95" stroke="#000000" stroke-width="1" fill="none"></path></g><g transform="translate(120.09297052154193 193.14777021919895) rotate(0 111.08767951625094 12.5)"><text x="111.08767951625094" y="18" font-family="Virgil, Segoe UI Emoji" font-size="20.015798111036208px" fill="#000000" text-anchor="middle" style="white-space: pre;" direction="ltr">localhost:4242/</text></g><g stroke-linecap="round" transform="translate(974.2418745275891 392.2887377173091) rotate(0 101.5767195767196 10.007558578987158)"><path d="M-0.82 -1.7 L201.54 -1.17 L203.27 20.51 L0.51 18.2" stroke="none" stroke-width="0" fill="#ced4da"></path><path d="M-1.77 0.07 C40.46 -2.33, 81.89 -0.03, 201.4 1.37 M0.01 -0.68 C53.1 -0.61, 105.19 0.07, 202.43 0.22 M204.38 -0.72 C202.35 6.56, 203.68 11.04, 201.31 20.78 M202.25 -0.61 C203.8 4.41, 202.45 7.74, 203.84 20.92 M204.35 19.91 C154.66 18.06, 109.53 18.44, -1.67 20.33 M202.38 19.98 C124.5 17.47, 45.58 17.81, 0.36 19.21 M-1.4 21.31 C1.97 13.59, -0.17 7.98, -1.42 0.84 M0.49 19.31 C-0.39 14.07, 0.43 9.47, 0.31 0.02" stroke="#000000" stroke-width="1" fill="none"></path></g><g stroke-linecap="round" transform="translate(976.2433862433863 439.3242630385487) rotate(0 101.5767195767196 10.007558578987158)"><path d="M1.96 -0.31 L202.49 -0.63 L203.5 21.25 L0.43 19.65" stroke="none" stroke-width="0" fill="#ced4da"></path><path d="M1.06 -0.96 C58.08 1.67, 121.07 2.66, 201.4 -1.54 M-0.11 -0.43 C60.55 0.75, 120.49 1.08, 203.19 -0.63 M202.88 0.46 C201.92 8.14, 202.66 15.93, 201.47 20.99 M203.71 0.1 C203.41 4.61, 202.69 8.32, 202.35 19.43 M201.53 21.7 C142.7 19.33, 80.42 21.82, -0.93 18.93 M202.5 20.77 C149.53 20.66, 95.37 20.57, 0.45 19.16 M-1.08 20.29 C-1.3 12.41, -1.83 6.58, 0.19 0.4 M-0.1 20.65 C-0.67 15.06, -1.05 9.21, 0.77 0.69" stroke="#000000" stroke-width="1" fill="none"></path></g><g transform="translate(987.7520786092214 186.6334089191232) rotate(0 16.512471655328795 16.01209372637942)"><text x="0" y="25.02418745275888" font-family="Helvetica, Segoe UI Emoji" font-size="28.02116402116402px" fill="#40c057" text-anchor="start" style="white-space: pre;" direction="ltr">&gt;_</text></g><g stroke-linecap="round" transform="translate(993.7566137566137 490.36281179138314) rotate(0 11.508692365835259 10.507936507936506)"><path d="M-0.25 -0.99 L22.15 -0.28 L24.52 22.44 L-1.78 22.62" stroke="none" stroke-width="0" fill="#fa5252"></path><path d="M-1.81 0.01 C6.74 1.04, 17.46 0.89, 22.35 -1.24 M0.4 0.49 C8.08 -0.93, 14.87 0.03, 22.22 -0.18 M24.75 1.05 C23.47 5.73, 24 10.67, 21.89 20.15 M22.32 -0.88 C22.53 5.28, 23.6 11.5, 22.9 20.78 M21.06 21.49 C16.69 22.86, 6.93 19.11, -0.07 21.16 M22.7 21.22 C16.8 21.41, 10.42 20.73, 0.73 21.81 M-1.23 21.93 C1.53 14.4, -0.93 6.46, -1.87 -0.11 M0.76 20.41 C-0.55 14.78, 0.39 7.61, -0.17 -0.78" stroke="#000000" stroke-width="1" fill="none"></path></g><g stroke-linecap="round" transform="translate(1069.3136810279666 489.8624338624338) rotate(0 11.508692365835259 10.507936507936506)"><path d="M-1.16 -1.02 L24.33 -0.94 L22.27 21.68 L-0.39 21.18" stroke="none" stroke-width="0" fill="#fab005"></path><path d="M1.01 0.46 C4.63 -0.39, 10.79 0.46, 22.93 -1.96 M0.06 -0.95 C7.42 -0.14, 14.66 -0.35, 22.8 -0.32 M23.14 -0.46 C24.49 8.31, 24.12 13.51, 21.36 19.78 M22.55 0.16 C22.24 7.21, 23.46 14.57, 23.21 21.78 M23.81 21.8 C17.15 19.61, 11.73 20.17, -0.87 20.74 M23.82 21.1 C15.11 20.71, 5.24 20.28, 0 20.43 M0.23 21.24 C-1.46 17.02, 1.03 10.24, 0.86 1.6 M-0.77 21.46 C0.48 14.97, 0.14 7.97, -0.67 0.24" stroke="#000000" stroke-width="1" fill="none"></path></g><g stroke-linecap="round" transform="translate(1136.3643235071804 489.8624338624338) rotate(0 11.508692365835259 10.507936507936506)"><path d="M-1.67 1.32 L24.52 0.42 L24.23 20.73 L0.92 20.82" stroke="none" stroke-width="0" fill="#40c057"></path><path d="M1.52 1.38 C6.52 -1.37, 9.12 0.35, 24.27 -0.42 M0.33 0.18 C8.19 0.49, 17.67 -0.82, 23.16 0.79 M21.38 1.2 C22.52 5.14, 24.17 13.61, 24.96 19.91 M22.05 -0.38 C22.47 5.73, 23.12 10.75, 23.28 21.3 M22.66 22.03 C13.23 19.78, 6.52 19.13, -1.39 22.6 M23.04 21.85 C18.89 20.62, 13.75 21.37, -0.85 21.94 M-0.29 20.19 C-0.37 13.42, -1.65 6.98, -0.07 1.15 M0.12 20.18 C-0.02 14.51, -0.32 5.64, 0.26 -0.05" stroke="#000000" stroke-width="1" fill="none"></path></g><g stroke-linecap="round"><g transform="translate(918.1993726950877 239.1724362804414) rotate(180.57732668118456 -269.44114474641094 0.9359477568318653)"><path d="M0.99 0.12 C-89.04 0.55, -448.93 2.26, -539.17 2.74 M0.04 -0.87 C-90.19 -0.81, -450.2 0.5, -539.87 0.81" stroke="#000000" stroke-width="1" fill="none"></path></g><g transform="translate(918.1993726950877 239.1724362804414) rotate(180.57732668118456 -269.44114474641094 0.9359477568318653)"><path d="M-511.52 -8.77 C-521.89 -6.68, -532.23 -2.13, -538.81 -0.43 M-512.26 -10.39 C-518.35 -7.25, -526.47 -3.9, -539.9 0.74" stroke="#000000" stroke-width="1" fill="none"></path></g><g transform="translate(918.1993726950877 239.1724362804414) rotate(180.57732668118456 -269.44114474641094 0.9359477568318653)"><path d="M-511.45 11.76 C-521.86 5.97, -532.24 2.65, -538.81 -0.43 M-512.19 10.13 C-518.27 8.06, -526.41 6.2, -539.9 0.74" stroke="#000000" stroke-width="1" fill="none"></path></g></g><g transform="translate(583.4467120181407 123.58578987150418) rotate(0 59.54497354497357 22.517006802721085)"><text x="0" y="32.034013605442176" font-family="Virgil, Segoe UI Emoji" font-size="36.02721088435374px" fill="#000000" text-anchor="start" style="white-space: pre;" direction="ltr">GET /</text></g><g transform="translate(595.4557823129253 376.27664399092964) rotate(0 47.535903250188994 22.517006802721085)"><text x="0" y="32.034013605442176" font-family="Virgil, Segoe UI Emoji" font-size="36.02721088435374px" fill="#000000" text-anchor="start" style="white-space: pre;" direction="ltr">JSON</text></g><g transform="translate(184.14512471655325 94.06349206349205) rotate(0 39.02947845804988 22.517006802721085)"><text x="0" y="32.034013605442176" font-family="Virgil, Segoe UI Emoji" font-size="36.02721088435374px" fill="#000000" text-anchor="start" style="white-space: pre;" direction="ltr">WEB</text></g><g transform="translate(1006.7664399092973 78.05139833711246) rotate(0 69.55253212396065 22.517006802721085)"><text x="0" y="32.034013605442176" font-family="Virgil, Segoe UI Emoji" font-size="36.02721088435374px" fill="#000000" text-anchor="start" style="white-space: pre;" direction="ltr">SERVER</text></g></svg>